<svg width="105" height="276" viewBox="0 0 105 276" fill="none" xmlns="http://www.w3.org/2000/svg">
<path d="M-18.1687 263.779C2.02608 260.942 21.2069 253.149 37.6747 241.092C54.1426 229.034 67.3891 213.083 76.2409 194.653C85.0928 176.222 89.2768 155.88 88.4223 135.429C87.5677 114.977 81.7011 95.048 71.3419 77.4059C60.9828 59.7638 46.451 44.9534 29.0337 34.2868C11.6163 23.6201 -8.14889 17.4264 -28.5112 16.2542C-48.8735 15.0821 -69.2044 18.9677 -87.7029 27.5668C-106.202 36.1659 -122.297 49.2132 -134.563 65.5529L-127.02 71.2602C-115.687 56.1645 -100.818 44.1105 -83.7274 36.1661C-66.6372 28.2216 -47.8542 24.6319 -29.0421 25.7148C-10.2301 26.7977 8.03028 32.5199 24.1215 42.3744C40.2128 52.229 53.6383 65.9117 63.2087 82.2107C72.7791 98.5097 78.1991 116.922 78.9886 135.816C79.7781 154.71 75.9127 173.503 67.7347 190.531C59.5568 207.558 47.3188 222.295 32.1047 233.434C16.8907 244.574 -0.829814 251.773 -19.4871 254.394L-18.1687 263.779Z" fill="#FAAC31"/>
</svg>
