<svg width="88" height="88" viewBox="0 0 88 88" fill="none" xmlns="http://www.w3.org/2000/svg">
<path d="M52.2822 74.9096C58.7049 73.1886 64.432 69.5097 68.6676 64.384C72.9031 59.2584 75.4369 52.9406 75.9166 46.3087C76.3963 39.6768 74.7983 33.0601 71.3444 27.3782C67.8906 21.6964 62.7527 17.2315 56.6445 14.6041C50.5364 11.9767 43.7615 11.3173 37.2614 12.7175C30.7612 14.1177 24.8587 17.508 20.374 22.4172C15.8894 27.3265 13.0454 33.5108 12.2372 40.1107C11.4291 46.7107 12.697 53.3984 15.8646 59.2447L29.542 51.8338C27.9142 48.8296 27.2627 45.3929 27.678 42.0014C28.0933 38.6098 29.5547 35.4319 31.8593 32.9092C34.1638 30.3865 37.1969 28.6443 40.5372 27.9248C43.8774 27.2052 47.3589 27.5441 50.4977 28.8942C53.6365 30.2444 56.2767 32.5388 58.0516 35.4585C59.8264 38.3783 60.6476 41.7784 60.4011 45.1863C60.1545 48.5943 58.8525 51.8408 56.676 54.4748C54.4994 57.1087 51.5564 58.9992 48.256 59.8835L52.2822 74.9096Z" fill="#FAAC31"/>
<g filter="url(#filter0_d)">
<circle cx="44" cy="44" r="25" fill="white"/>
</g>
<path d="M88 44C88 34.5465 84.9553 25.3444 79.3169 17.7565C73.6784 10.1687 65.7461 4.59851 56.6946 1.87106C47.6431 -0.85639 37.9539 -0.596106 29.0619 2.61337C20.1699 5.82284 12.5481 11.8108 7.32512 19.6905C2.10218 27.5701 -0.444078 36.9224 0.0634583 46.3623C0.570995 55.8021 4.10533 64.8275 10.143 72.1017C16.1807 79.3759 24.4007 84.5122 33.5855 86.7497C42.7704 88.9873 52.4317 88.2072 61.1385 84.5249L58.7959 78.9857C51.2792 82.1646 42.9385 82.8381 35.0091 80.9063C27.0797 78.9746 19.9833 74.5405 14.7709 68.2605C9.55846 61.9806 6.50723 54.1889 6.06907 46.0394C5.6309 37.8899 7.82912 29.8159 12.3381 23.0133C16.8472 16.2107 23.4272 11.0412 31.1038 8.27043C38.7803 5.49966 47.1451 5.27495 54.9594 7.62959C62.7736 9.98423 69.6217 14.793 74.4895 21.3437C79.3572 27.8944 81.9857 35.8387 81.9857 44H88Z" fill="#FAAC31"/>
<defs>
<filter id="filter0_d" x="14" y="14" width="60" height="60" filterUnits="userSpaceOnUse" color-interpolation-filters="sRGB">
<feFlood flood-opacity="0" result="BackgroundImageFix"/>
<feColorMatrix in="SourceAlpha" type="matrix" values="0 0 0 0 0 0 0 0 0 0 0 0 0 0 0 0 0 0 127 0" result="hardAlpha"/>
<feMorphology radius="1" operator="dilate" in="SourceAlpha" result="effect1_dropShadow"/>
<feOffset/>
<feGaussianBlur stdDeviation="2"/>
<feComposite in2="hardAlpha" operator="out"/>
<feColorMatrix type="matrix" values="0 0 0 0 0 0 0 0 0 0 0 0 0 0 0 0 0 0 0.25 0"/>
<feBlend mode="normal" in2="BackgroundImageFix" result="effect1_dropShadow"/>
<feBlend mode="normal" in="SourceGraphic" in2="effect1_dropShadow" result="shape"/>
</filter>
</defs>
</svg>
