<svg width="274" height="209" viewBox="0 0 274 209" fill="none" xmlns="http://www.w3.org/2000/svg">
<path d="M52.8895 35.0913C53.5165 30.7661 52.7806 26.353 50.784 22.4652C48.7875 18.5775 45.6294 15.4083 41.7488 13.3979C37.8681 11.3876 33.4576 10.6361 29.1302 11.2478C24.8028 11.8595 20.7734 13.804 17.6019 16.8111C14.4305 19.8183 12.2746 23.7387 11.4338 28.0275C10.593 32.3163 11.1091 36.7605 12.9103 40.7425C14.7116 44.7245 17.7085 48.0465 21.4847 50.2468C25.2608 52.4472 29.6286 53.4166 33.981 53.0203L33.054 42.8377C30.8174 43.0413 28.5729 42.5431 26.6324 41.4124C24.692 40.2817 23.1519 38.5747 22.2263 36.5284C21.3007 34.4822 21.0355 32.1984 21.4676 29.9945C21.8996 27.7906 23.0075 25.7761 24.6372 24.2308C26.2669 22.6855 28.3375 21.6862 30.5613 21.3719C32.785 21.0576 35.0514 21.4438 37.0456 22.4768C39.0398 23.5099 40.6626 25.1384 41.6886 27.1362C42.7145 29.134 43.0927 31.4018 42.7705 33.6245L52.8895 35.0913Z" fill="#FAAC31"/>
<g filter="url(#filter0_d)">
<path d="M48.3955 33.9759C48.8244 30.2957 47.9969 26.5785 46.0475 23.4278C44.098 20.277 41.1409 17.8776 37.6562 16.6189C34.1714 15.3602 30.3636 15.3161 26.8506 16.4939C23.3377 17.6716 20.3259 20.002 18.304 23.1068C16.2822 26.2116 15.369 29.9086 15.7126 33.5977C16.0562 37.2868 17.6365 40.7515 20.197 43.4295C22.7575 46.1075 26.1479 47.8416 29.8179 48.3502C33.4879 48.8589 37.2221 48.1124 40.4144 46.2318L35.2176 37.4102C34.0143 38.119 32.6068 38.4004 31.2235 38.2087C29.8402 38.0169 28.5623 37.3633 27.5972 36.3539C26.6321 35.3446 26.0365 34.0386 25.907 32.6481C25.7775 31.2576 26.1217 29.8642 26.8838 28.6939C27.6458 27.5237 28.781 26.6453 30.1051 26.2014C31.4292 25.7575 32.8645 25.7741 34.1779 26.2485C35.4914 26.7229 36.606 27.6273 37.3408 28.8149C38.0756 30.0025 38.3874 31.4035 38.2258 32.7907L48.3955 33.9759Z" fill="white"/>
</g>
<path d="M60.7999 35.4215C61.5192 29.2497 60.2315 23.0103 57.1277 17.6274C54.0239 12.2446 49.2689 8.00448 43.567 5.53514C37.8652 3.0658 31.5196 2.49853 25.4701 3.91734C19.4207 5.33615 13.989 8.6656 9.97961 13.4126C5.97021 18.1595 3.59628 24.0716 3.20941 30.2732C2.82253 36.4747 4.44329 42.636 7.83164 47.8445C11.22 53.0529 16.1957 57.0316 22.022 59.1913C27.8482 61.3509 34.2151 61.5767 40.1796 59.8352L39.0717 56.0405C33.9224 57.544 28.4258 57.3491 23.3959 55.4846C18.3661 53.6202 14.0705 50.1853 11.1453 45.6888C8.22006 41.1923 6.82084 35.8732 7.15483 30.5193C7.48882 25.1654 9.53827 20.0615 12.9996 15.9633C16.461 11.8652 21.1502 8.99088 26.3728 7.766C31.5953 6.54113 37.0735 7.03086 41.996 9.16267C46.9185 11.2945 51.0236 14.955 53.7031 19.6021C56.3827 24.2492 57.4943 29.6357 56.8734 34.964L60.7999 35.4215Z" fill="#FAAC31"/>
<path d="M40.4282 175.605C38.3744 174.122 35.9096 173.316 33.3764 173.298C30.8431 173.28 28.3672 174.051 26.2927 175.506C24.2182 176.96 22.6482 179.024 21.8008 181.411C20.9534 183.798 20.8708 186.391 21.5644 188.827C22.2579 191.264 23.6933 193.424 25.671 195.007C27.6486 196.59 30.0703 197.518 32.5996 197.661C35.1289 197.805 37.64 197.157 39.7841 195.808C41.9282 194.458 43.5987 192.475 44.5634 190.132L39.0833 187.875C38.5875 189.079 37.7291 190.098 36.6273 190.792C35.5255 191.485 34.2351 191.818 32.9354 191.744C31.6357 191.67 30.3912 191.194 29.3749 190.38C28.3587 189.566 27.6211 188.457 27.2647 187.204C26.9083 185.952 26.9507 184.62 27.3862 183.394C27.8216 182.167 28.6284 181.106 29.6944 180.359C30.7605 179.612 32.0328 179.215 33.3345 179.224C34.6363 179.233 35.9029 179.648 36.9583 180.41L40.4282 175.605Z" fill="#FAAC31"/>
<g filter="url(#filter1_d)">
<path d="M38.6488 177.615C36.8732 176.406 34.7414 175.834 32.5995 175.99C30.4575 176.145 28.431 177.02 26.8489 178.473C25.2668 179.925 24.222 181.87 23.8841 183.991C23.5461 186.111 23.9349 188.284 24.9872 190.156C26.0396 192.029 27.6937 193.49 29.6812 194.304C31.6688 195.118 33.873 195.236 35.9361 194.639C37.9992 194.043 39.8002 192.766 41.0467 191.017C42.2932 189.269 42.912 187.15 42.8028 185.005L33.2903 185.489L38.6488 177.615Z" fill="white"/>
</g>
<path d="M42.7212 171.63C39.7436 169.604 36.1924 168.59 32.5938 168.74C28.9952 168.89 25.5405 170.194 22.7413 172.461C19.9421 174.727 17.9473 177.835 17.0523 181.324C16.1573 184.812 16.4098 188.497 17.7723 191.831C19.1347 195.165 21.5348 197.971 24.617 199.835C27.6991 201.698 31.2995 202.52 34.8849 202.177C38.4703 201.834 41.85 200.346 44.5235 197.933C47.197 195.519 49.0221 192.309 49.7284 188.777L47.4815 188.328C46.8717 191.377 45.2961 194.148 42.988 196.232C40.68 198.315 37.7623 199.6 34.667 199.896C31.5716 200.192 28.4634 199.483 25.8025 197.874C23.1416 196.265 21.0696 193.842 19.8934 190.964C18.7171 188.086 18.4992 184.905 19.2718 181.893C20.0445 178.881 21.7666 176.198 24.1832 174.241C26.5998 172.285 29.5823 171.159 32.689 171.029C35.7958 170.9 38.8615 171.775 41.4321 173.524L42.7212 171.63Z" fill="#FAAC31"/>
<path d="M258.933 178.922C261.325 175.264 262.517 170.952 262.345 166.585C262.173 162.218 260.645 158.013 257.973 154.554C255.301 151.095 251.618 148.555 247.436 147.286C243.254 146.017 238.781 146.082 234.637 147.472C230.494 148.863 226.886 151.509 224.316 155.044C221.746 158.579 220.341 162.827 220.297 167.197C220.252 171.567 221.569 175.843 224.066 179.43C226.564 183.017 230.116 185.737 234.23 187.212L237.681 177.587C235.567 176.829 233.741 175.431 232.458 173.588C231.175 171.745 230.498 169.548 230.521 167.302C230.544 165.056 231.266 162.873 232.587 161.057C233.907 159.24 235.761 157.88 237.89 157.166C240.019 156.451 242.318 156.418 244.467 157.07C246.616 157.722 248.509 159.028 249.882 160.805C251.255 162.582 252.04 164.743 252.129 166.987C252.217 169.231 251.604 171.447 250.375 173.327L258.933 178.922Z" fill="#FAAC31"/>
<g filter="url(#filter2_d)">
<path d="M231.438 154.291C234.307 152.128 237.806 150.965 241.399 150.981C244.992 150.996 248.481 152.188 251.332 154.376C254.182 156.563 256.237 159.624 257.182 163.091C258.128 166.557 257.91 170.238 256.564 173.569C255.218 176.9 252.817 179.699 249.729 181.535C246.641 183.372 243.036 184.146 239.466 183.739C235.896 183.331 232.558 181.765 229.963 179.28C227.368 176.795 225.659 173.527 225.098 169.978L231.397 168.983C231.741 171.154 232.786 173.153 234.374 174.674C235.962 176.195 238.004 177.153 240.189 177.403C242.373 177.652 244.579 177.178 246.469 176.054C248.358 174.93 249.828 173.218 250.651 171.18C251.475 169.141 251.608 166.889 251.03 164.768C250.451 162.647 249.194 160.773 247.45 159.435C245.705 158.097 243.57 157.367 241.372 157.358C239.173 157.348 237.032 158.06 235.276 159.383L231.438 154.291Z" fill="white"/>
</g>
<path d="M212.525 170.01C213.083 176.198 215.619 182.042 219.758 186.677C223.897 191.311 229.419 194.489 235.505 195.741C241.592 196.992 247.919 196.25 253.551 193.624C259.182 190.998 263.818 186.628 266.772 181.162C269.726 175.695 270.841 169.423 269.952 163.273C269.062 157.123 266.216 151.424 261.834 147.018C257.452 142.613 251.768 139.735 245.623 138.813C239.479 137.89 233.2 138.971 227.718 141.895L229.578 145.383C234.311 142.859 239.732 141.925 245.036 142.722C250.341 143.519 255.248 146.002 259.031 149.806C262.814 153.609 265.271 158.53 266.039 163.839C266.807 169.148 265.845 174.563 263.294 179.282C260.744 184.002 256.742 187.774 251.88 190.041C247.018 192.308 241.556 192.949 236.301 191.869C231.047 190.788 226.28 188.045 222.707 184.044C219.134 180.043 216.944 174.997 216.462 169.655L212.525 170.01Z" fill="#FAAC31"/>
<rect x="105.739" y="34.2477" width="30.436" height="65.22" transform="rotate(84.9725 105.739 34.2477)" fill="#FAAC31"/>
<rect x="191.987" y="146.233" width="63.3353" height="27.4574" transform="rotate(-58.652 191.987 146.233)" fill="#FAAC31"/>
<rect x="37.7781" y="179.065" width="70.655" height="7.98095" transform="rotate(-40.6909 37.7781 179.065)" fill="#FAAC31"/>
<path fill-rule="evenodd" clip-rule="evenodd" d="M165.775 124.408L178.514 147.716L118.317 180.534L95.391 138.482L157.213 106.559L153.552 99.4677L91.5698 131.473L69.9283 91.7761L127.191 60.5578L112.623 33.835L170.84 2.09644L221.051 94.1966L165.775 124.408Z" fill="#FAAC31"/>
<defs>
<filter id="filter0_d" x="10.6417" y="10.6416" width="42.8643" height="42.8642" filterUnits="userSpaceOnUse" color-interpolation-filters="sRGB">
<feFlood flood-opacity="0" result="BackgroundImageFix"/>
<feColorMatrix in="SourceAlpha" type="matrix" values="0 0 0 0 0 0 0 0 0 0 0 0 0 0 0 0 0 0 127 0" result="hardAlpha"/>
<feMorphology radius="1" operator="dilate" in="SourceAlpha" result="effect1_dropShadow"/>
<feOffset/>
<feGaussianBlur stdDeviation="2"/>
<feComposite in2="hardAlpha" operator="out"/>
<feColorMatrix type="matrix" values="0 0 0 0 0 0 0 0 0 0 0 0 0 0 0 0 0 0 0.25 0"/>
<feBlend mode="normal" in2="BackgroundImageFix" result="effect1_dropShadow"/>
<feBlend mode="normal" in="SourceGraphic" in2="effect1_dropShadow" result="shape"/>
</filter>
<filter id="filter1_d" x="18.7654" y="170.964" width="29.0497" height="29.0497" filterUnits="userSpaceOnUse" color-interpolation-filters="sRGB">
<feFlood flood-opacity="0" result="BackgroundImageFix"/>
<feColorMatrix in="SourceAlpha" type="matrix" values="0 0 0 0 0 0 0 0 0 0 0 0 0 0 0 0 0 0 127 0" result="hardAlpha"/>
<feMorphology radius="1" operator="dilate" in="SourceAlpha" result="effect1_dropShadow"/>
<feOffset/>
<feGaussianBlur stdDeviation="2"/>
<feComposite in2="hardAlpha" operator="out"/>
<feColorMatrix type="matrix" values="0 0 0 0 0 0 0 0 0 0 0 0 0 0 0 0 0 0 0.25 0"/>
<feBlend mode="normal" in2="BackgroundImageFix" result="effect1_dropShadow"/>
<feBlend mode="normal" in="SourceGraphic" in2="effect1_dropShadow" result="shape"/>
</filter>
<filter id="filter2_d" x="213.316" y="139.4" width="56.0258" height="56.0258" filterUnits="userSpaceOnUse" color-interpolation-filters="sRGB">
<feFlood flood-opacity="0" result="BackgroundImageFix"/>
<feColorMatrix in="SourceAlpha" type="matrix" values="0 0 0 0 0 0 0 0 0 0 0 0 0 0 0 0 0 0 127 0" result="hardAlpha"/>
<feMorphology radius="1" operator="dilate" in="SourceAlpha" result="effect1_dropShadow"/>
<feOffset/>
<feGaussianBlur stdDeviation="2"/>
<feComposite in2="hardAlpha" operator="out"/>
<feColorMatrix type="matrix" values="0 0 0 0 0 0 0 0 0 0 0 0 0 0 0 0 0 0 0.25 0"/>
<feBlend mode="normal" in2="BackgroundImageFix" result="effect1_dropShadow"/>
<feBlend mode="normal" in="SourceGraphic" in2="effect1_dropShadow" result="shape"/>
</filter>
</defs>
</svg>
