<svg width="47" height="47" viewBox="0 0 47 47" fill="none" xmlns="http://www.w3.org/2000/svg">
<path d="M39.6562 0H7.34375C3.28791 0 0 3.28791 0 7.34375V39.6562C0 43.7121 3.28791 47 7.34375 47H39.6562C43.7121 47 47 43.7121 47 39.6562V7.34375C47 3.28791 43.7121 0 39.6562 0Z" fill="white"/>
<path d="M17.0375 35.25H12.0437V19.5344H17.0375V35.25ZM14.5406 17.3313C12.925 17.3313 11.75 16.1562 11.75 14.5406C11.75 12.925 13.0719 11.75 14.5406 11.75C16.1563 11.75 17.3313 12.925 17.3313 14.5406C17.3313 16.1562 16.1563 17.3313 14.5406 17.3313ZM35.25 35.25H30.2563V26.7313C30.2563 24.2344 29.2281 23.5 27.7594 23.5C26.2906 23.5 24.8219 24.675 24.8219 26.8781V35.25H19.8281V19.5344H24.5281V21.7375C24.9687 20.7094 26.7312 19.0938 29.2281 19.0938C32.0187 19.0938 34.9563 20.7094 34.9563 25.5562V35.25H35.25Z" fill="#1C1C1C"/>
</svg>
