<svg width="47" height="47" viewBox="0 0 47 47" fill="none" xmlns="http://www.w3.org/2000/svg">
<path fill-rule="evenodd" clip-rule="evenodd" d="M26.0615 27.6125C26.414 28.059 26.837 28.5642 26.837 28.5642C29.4337 28.482 30.4325 26.7782 30.4325 26.7782C30.4325 22.9947 28.7405 19.928 28.7405 19.928C27.0485 18.659 25.4387 18.6943 25.4387 18.6943L25.2743 18.8822C27.2718 19.4932 28.2 20.3745 28.2 20.3745C26.978 19.7048 25.7795 19.3758 24.6632 19.2465C23.8172 19.1525 23.0065 19.176 22.2897 19.27C22.2282 19.27 22.1756 19.279 22.1163 19.289L22.09 19.2935C21.6788 19.3288 20.68 19.4815 19.4228 20.0338C18.988 20.2335 18.7295 20.3745 18.7295 20.3745C18.7295 20.3745 19.7048 19.4462 21.8197 18.8353L21.7022 18.6943C21.7022 18.6943 20.0925 18.659 18.4005 19.928C18.4005 19.928 16.7085 22.9947 16.7085 26.7782C16.7085 26.7782 17.6955 28.482 20.2922 28.5642C20.2922 28.5642 20.727 28.0355 21.0795 27.589C19.5872 27.1425 19.0232 26.2025 19.0232 26.2025C19.0232 26.2025 19.1407 26.2847 19.3522 26.4023C19.364 26.414 19.3757 26.4258 19.3993 26.4375C19.4169 26.4493 19.4345 26.4581 19.4521 26.4669C19.4698 26.4757 19.4874 26.4845 19.505 26.4962C19.7987 26.6608 20.0925 26.79 20.3628 26.8957C20.8445 27.0837 21.4202 27.2717 22.09 27.401C22.9712 27.5655 24.0052 27.6243 25.1332 27.4128C25.6855 27.3188 26.2495 27.1542 26.837 26.9075C27.2483 26.7547 27.7065 26.5315 28.1882 26.2142C28.1882 26.2142 27.6007 27.1777 26.0615 27.6125ZM20.1748 24.3813C20.1748 23.6645 20.7035 23.077 21.3733 23.077C22.043 23.077 22.5835 23.6645 22.5718 24.3813C22.5718 25.098 22.043 25.6855 21.3733 25.6855C20.7153 25.6855 20.1748 25.098 20.1748 24.3813ZM24.4635 24.3813C24.4635 23.6645 24.9923 23.077 25.662 23.077C26.3318 23.077 26.8605 23.6645 26.8605 24.3813C26.8605 25.098 26.3318 25.6855 25.662 25.6855C25.004 25.6855 24.4635 25.098 24.4635 24.3813Z" fill="white"/>
<path fill-rule="evenodd" clip-rule="evenodd" d="M39.6562 0C43.7121 0 47 3.28791 47 7.34375V39.6562C47 43.7121 43.7121 47 39.6562 47H7.34375C3.28791 47 0 43.7121 0 39.6562V7.34375C0 3.28791 3.28791 0 7.34375 0H39.6562ZM15.6275 13.2188H31.3725C32.7002 13.2188 33.7812 14.2998 33.7812 15.6392V36.7188L31.255 34.4862L29.8332 33.1702L28.3293 31.772L28.952 33.9457H15.6275C14.2998 33.9457 13.2188 32.8647 13.2188 31.5253V15.6392C13.2188 14.2998 14.2998 13.2188 15.6275 13.2188Z" fill="white"/>
</svg>
