<svg width="46" height="47" viewBox="0 0 46 47" fill="none" xmlns="http://www.w3.org/2000/svg">
<path fill-rule="evenodd" clip-rule="evenodd" d="M0 7.34375C0 3.28791 3.21795 0 7.1875 0H38.8125C42.782 0 46 3.28791 46 7.34375V39.6562C46 43.7121 42.782 47 38.8125 47H7.1875C3.21795 47 0 43.7121 0 39.6562V7.34375ZM11.5 23.7461C11.5 17.2782 16.6345 12.032 22.9648 12.032C29.2951 12.032 34.4296 17.2782 34.5 23.7461C34.5 28.9204 31.2645 33.3042 26.6926 34.8852C26.13 34.9571 25.919 34.5978 25.919 34.3103V31.0763C25.919 29.9984 25.5673 29.2797 25.1453 28.9204C27.6774 28.6329 30.3502 27.6987 30.3502 23.1711C30.3502 21.8776 29.8578 20.7996 29.1545 20.0091C29.16 19.9865 29.1677 19.9581 29.1769 19.9243C29.2846 19.5274 29.597 18.3757 29.0137 16.9189C29.0137 16.9189 28.0291 16.6314 25.8486 18.1406C24.9343 17.925 23.9495 17.7812 22.9648 17.7812C21.9801 17.7812 20.9954 17.8531 20.081 18.1406C17.9006 16.6314 16.9159 16.9189 16.9159 16.9189C16.2943 18.4715 16.6901 19.6775 16.7711 19.9246L16.7752 19.9372C16.0015 20.7996 15.5795 21.8057 15.5795 23.0993C15.5795 27.6268 18.2523 28.6329 20.7844 28.9204C20.5031 29.2078 20.1514 29.7109 20.081 30.5014C19.448 30.7889 17.8303 31.2919 16.7752 29.4953C16.7752 29.4953 16.1422 28.3455 15.0168 28.2736C15.0168 28.2736 13.8915 28.2736 14.9465 28.9922C14.9465 28.9922 15.7202 29.3516 16.2125 30.717C16.2125 30.717 16.9159 33.0167 20.081 32.2981V34.3103C20.081 34.5978 19.87 34.9571 19.3074 34.8852C14.8058 33.3042 11.5 28.9204 11.5 23.7461Z" fill="white"/>
</svg>
