<svg width="47" height="47" viewBox="0 0 47 47" fill="none" xmlns="http://www.w3.org/2000/svg">
<path d="M23.5 27.6125C21.2969 27.6125 19.3875 25.85 19.3875 23.5C19.3875 21.2969 21.15 19.3875 23.5 19.3875C25.7031 19.3875 27.6125 21.15 27.6125 23.5C27.6125 25.7031 25.7031 27.6125 23.5 27.6125Z" fill="white"/>
<path fill-rule="evenodd" clip-rule="evenodd" d="M28.4937 13.5125H18.5063C17.3313 13.6594 16.7438 13.8062 16.3031 13.9531C15.7156 14.1 15.275 14.3937 14.8344 14.8344C14.4857 15.183 14.321 15.5317 14.1219 15.9531C14.0694 16.0642 14.0144 16.1806 13.9531 16.3031C13.9304 16.3713 13.9042 16.443 13.876 16.5198C13.7224 16.9396 13.5125 17.513 13.5125 18.5062V28.4937C13.6594 29.6687 13.8062 30.2562 13.9531 30.6969C14.1 31.2844 14.3938 31.725 14.8344 32.1656C15.183 32.5143 15.5317 32.679 15.9531 32.8781C16.0643 32.9306 16.1805 32.9856 16.3031 33.0469C16.3713 33.0696 16.443 33.0958 16.5198 33.1239C16.9396 33.2776 17.513 33.4875 18.5063 33.4875H28.4937C29.6687 33.3406 30.2563 33.1937 30.6969 33.0469C31.2844 32.9 31.725 32.6062 32.1656 32.1656C32.5143 31.817 32.679 31.4683 32.8781 31.0469C32.9306 30.9357 32.9856 30.8195 33.0469 30.6969C33.0696 30.6287 33.0958 30.557 33.124 30.4802C33.2776 30.0604 33.4875 29.487 33.4875 28.4937V18.5062C33.3406 17.3312 33.1938 16.7437 33.0469 16.3031C32.9 15.7156 32.6062 15.275 32.1656 14.8344C31.817 14.4857 31.4683 14.321 31.0469 14.1219C30.9359 14.0694 30.8193 14.0143 30.6969 13.9531C30.6287 13.9304 30.557 13.9042 30.4802 13.876C30.0604 13.7224 29.487 13.5125 28.4937 13.5125ZM23.5 17.1844C19.975 17.1844 17.1844 19.975 17.1844 23.5C17.1844 27.025 19.975 29.8156 23.5 29.8156C27.025 29.8156 29.8156 27.025 29.8156 23.5C29.8156 19.975 27.025 17.1844 23.5 17.1844ZM31.4312 17.0375C31.4312 17.8487 30.7737 18.5062 29.9625 18.5062C29.1513 18.5062 28.4937 17.8487 28.4937 17.0375C28.4937 16.2263 29.1513 15.5687 29.9625 15.5687C30.7737 15.5687 31.4312 16.2263 31.4312 17.0375Z" fill="white"/>
<path fill-rule="evenodd" clip-rule="evenodd" d="M0 7.34375C0 3.28791 3.28791 0 7.34375 0H39.6562C43.7121 0 47 3.28791 47 7.34375V39.6562C47 43.7121 43.7121 47 39.6562 47H7.34375C3.28791 47 0 43.7121 0 39.6562V7.34375ZM18.5063 11.3094H28.4937C29.8156 11.4562 30.6969 11.6031 31.4312 11.8969C32.3125 12.3375 32.9 12.6312 33.6344 13.3656C34.3687 14.1 34.8094 14.8344 35.1031 15.5687C35.3969 16.3031 35.6906 17.1844 35.6906 18.5062V28.4937C35.5437 29.8156 35.3969 30.6969 35.1031 31.4312C34.6625 32.3125 34.3687 32.9 33.6344 33.6344C32.9 34.3687 32.1656 34.8094 31.4312 35.1031C30.6969 35.3969 29.8156 35.6906 28.4937 35.6906H18.5063C17.1844 35.5437 16.3031 35.3969 15.5688 35.1031C14.6875 34.6625 14.1 34.3687 13.3656 33.6344C12.6313 32.9 12.1906 32.1656 11.8969 31.4312C11.6031 30.6969 11.3094 29.8156 11.3094 28.4937V18.5062C11.4562 17.1844 11.6031 16.3031 11.8969 15.5687C12.3375 14.6875 12.6313 14.1 13.3656 13.3656C14.1 12.6312 14.8344 12.1906 15.5688 11.8969C16.3031 11.6031 17.1844 11.3094 18.5063 11.3094Z" fill="white"/>
</svg>
