<svg width="47" height="47" viewBox="0 0 47 47" fill="none" xmlns="http://www.w3.org/2000/svg">
<path fill-rule="evenodd" clip-rule="evenodd" d="M18.5063 31.8719C19.975 32.7531 21.7375 33.1937 23.5 33.1937C28.9344 33.1937 33.1938 28.7875 33.1938 23.6469C33.1938 21.0031 32.3125 18.6531 30.4031 16.7438C28.4938 14.9812 26.1438 13.9531 23.5 13.9531C18.2125 13.9531 13.8062 18.3594 13.8062 23.6469C13.8062 25.4094 14.2469 27.1719 15.275 28.7875L15.5688 29.2281L14.5406 32.7531L18.2125 31.725L18.5063 31.8719ZM26.7313 24.9688C27.025 24.9688 28.4938 25.7031 28.7875 25.85C28.8333 25.8729 28.879 25.8922 28.9242 25.9112C29.1692 26.0147 29.3979 26.1112 29.5219 26.7312C29.6688 26.7312 29.6687 27.3187 29.375 28.0531C29.2281 28.6406 28.0531 29.375 27.4656 29.375C27.3661 29.375 27.2708 29.3834 27.169 29.3924C26.6698 29.4366 26.0145 29.4946 23.9406 28.6406C21.3667 27.611 19.5821 25.1155 19.081 24.4147C19.0102 24.3157 18.965 24.2526 18.9469 24.2344C18.9219 24.1844 18.8713 24.1045 18.8046 23.9993C18.4797 23.4862 17.7719 22.3687 17.7719 21.15C17.7719 19.6813 18.5062 18.9469 18.8 18.6531C19.0937 18.3594 19.3875 18.3594 19.5344 18.3594H20.1219C20.2688 18.3594 20.5625 18.3594 20.7094 18.8C21.0031 19.3875 21.5906 20.8562 21.5906 21.0031C21.5906 21.0521 21.607 21.101 21.6233 21.15C21.6559 21.2479 21.6886 21.3458 21.5906 21.4437C21.5172 21.5172 21.4805 21.5906 21.4438 21.6641C21.407 21.7375 21.3703 21.8109 21.2969 21.8844L20.8563 22.325C20.7094 22.4719 20.5625 22.6188 20.7094 22.9125C20.8563 23.2063 21.4438 24.2344 22.325 24.9688C23.3166 25.8364 24.0989 26.181 24.4956 26.3557C24.569 26.3881 24.6291 26.4146 24.675 26.4375C24.9687 26.4375 25.1156 26.4375 25.2625 26.2906C25.336 26.1438 25.5195 25.9234 25.7031 25.7031C25.8867 25.4828 26.0703 25.2625 26.1437 25.1156C26.2906 24.8219 26.4375 24.8219 26.7313 24.9688Z" fill="#F7F7F7"/>
<path fill-rule="evenodd" clip-rule="evenodd" d="M0 7.34375C0 3.28791 3.28791 0 7.34375 0H39.6562C43.7121 0 47 3.28791 47 7.34375V39.6562C47 43.7121 43.7121 47 39.6562 47H7.34375C3.28791 47 0 43.7121 0 39.6562V7.34375ZM23.5 11.75C26.5844 11.75 29.5219 12.925 31.725 15.1281C33.9281 17.3313 35.25 20.2688 35.25 23.3531C35.25 29.8156 29.9625 35.1031 23.5 35.1031C21.5906 35.1031 19.6813 34.5156 17.9188 33.6344L11.75 35.25L13.3656 29.375C12.3375 27.6125 11.75 25.5563 11.75 23.5C11.75 17.0375 17.0375 11.75 23.5 11.75Z" fill="#F7F7F7"/>
</svg>
