<svg width="77" height="77" viewBox="0 0 77 77" fill="none" xmlns="http://www.w3.org/2000/svg">
<path d="M47.1335 19.2838C43.1545 17.4761 38.7111 16.9528 34.4209 17.7866C30.1308 18.6204 26.2069 20.7699 23.1946 23.9365C20.1823 27.103 18.2312 31.1292 17.6124 35.4556C16.9937 39.7821 17.7381 44.1938 19.742 48.0777C21.746 51.9616 24.9101 55.1248 28.7946 57.1277C32.6791 59.1306 37.091 59.8737 41.4173 59.2538C45.7435 58.6338 49.7692 56.6816 52.9349 53.6684C56.1006 50.6552 58.249 46.7307 59.0816 42.4403L49.0441 40.4924C48.6162 42.6971 47.5122 44.7138 45.8855 46.2622C44.2587 47.8106 42.19 48.8138 39.9669 49.1324C37.7437 49.451 35.4766 49.0691 33.4804 48.0399C31.4843 47.0106 29.8584 45.3852 28.8286 43.3893C27.7988 41.3935 27.4163 39.1264 27.7342 36.9032C28.0522 34.68 29.0548 32.611 30.6027 30.9838C32.1507 29.3566 34.167 28.252 36.3716 27.8236C38.5762 27.3951 40.8596 27.664 42.9043 28.5929L47.1335 19.2838Z" fill="#FAAC31"/>
<g filter="url(#filter0_d)">
<path d="M44.8096 23.2887C41.3948 21.851 37.5944 21.6096 34.0251 22.6036C30.4558 23.5976 27.3273 25.7687 25.1472 28.7645C22.967 31.7603 21.8634 35.405 22.0153 39.107C22.1671 42.809 23.5657 46.351 25.9839 49.1581C28.4021 51.9652 31.698 53.8727 35.3367 54.571C38.9754 55.2693 42.7433 54.7173 46.0288 53.0047C49.3144 51.2922 51.9247 48.5195 53.4362 45.1367C54.9477 41.7539 55.2715 37.9596 54.3552 34.3696L44.4347 36.9016C44.7801 38.2548 44.658 39.6849 44.0883 40.96C43.5186 42.235 42.5347 43.2801 41.2964 43.9256C40.058 44.5711 38.6378 44.7791 37.2663 44.5159C35.8948 44.2527 34.6525 43.5338 33.741 42.4757C32.8296 41.4176 32.3024 40.0826 32.2452 38.6872C32.1879 37.2919 32.6039 35.9182 33.4257 34.789C34.2474 33.6598 35.4266 32.8415 36.7719 32.4668C38.1172 32.0922 39.5497 32.1832 40.8368 32.725L44.8096 23.2887Z" fill="white"/>
</g>
<path d="M49.6555 11.779C43.9287 9.36795 37.5777 8.86545 31.543 10.3459C25.5083 11.8264 20.1109 15.211 16.1501 19.9987C12.1894 24.7863 9.87589 30.7223 9.5523 36.9275C9.22872 43.1326 10.9122 49.2771 14.3536 54.4507C17.7949 59.6243 22.8109 63.552 28.6589 65.6521C34.5069 67.7522 40.8757 67.913 46.8222 66.1107C52.7687 64.3084 57.9766 60.6389 61.6746 55.6455C65.3726 50.6521 67.3641 44.6005 67.354 38.3869L63.401 38.3933C63.4096 43.7575 61.6904 48.982 58.4978 53.2928C55.3053 57.6037 50.8092 60.7716 45.6756 62.3276C40.5419 63.8835 35.0436 63.7447 29.995 61.9317C24.9464 60.1186 20.6159 56.7278 17.645 52.2613C14.6741 47.7949 13.2207 42.4903 13.5 37.1333C13.7794 31.7763 15.7767 26.6517 19.196 22.5185C22.6154 18.3853 27.275 15.4632 32.4848 14.1852C37.6947 12.9071 43.1776 13.3409 48.1216 15.4224L49.6555 11.779Z" fill="#FAAC31"/>
<defs>
<filter id="filter0_d" x="11.9128" y="11.9126" width="53.0414" height="53.0414" filterUnits="userSpaceOnUse" color-interpolation-filters="sRGB">
<feFlood flood-opacity="0" result="BackgroundImageFix"/>
<feColorMatrix in="SourceAlpha" type="matrix" values="0 0 0 0 0 0 0 0 0 0 0 0 0 0 0 0 0 0 127 0" result="hardAlpha"/>
<feMorphology radius="1" operator="dilate" in="SourceAlpha" result="effect1_dropShadow"/>
<feOffset/>
<feGaussianBlur stdDeviation="2"/>
<feComposite in2="hardAlpha" operator="out"/>
<feColorMatrix type="matrix" values="0 0 0 0 0 0 0 0 0 0 0 0 0 0 0 0 0 0 0.25 0"/>
<feBlend mode="normal" in2="BackgroundImageFix" result="effect1_dropShadow"/>
<feBlend mode="normal" in="SourceGraphic" in2="effect1_dropShadow" result="shape"/>
</filter>
</defs>
</svg>
