<svg width="66" height="65" viewBox="0 0 66 65" fill="none" xmlns="http://www.w3.org/2000/svg">
<path d="M12.0789 29.2933C11.4264 33.6148 12.1363 38.0321 14.1099 41.9316C16.0835 45.831 19.2228 49.0188 23.0916 51.052C26.9603 53.0851 31.3663 53.8626 35.6973 53.2764C40.0282 52.6903 44.069 50.7695 47.2581 47.7811C50.4472 44.7927 52.6262 40.8851 53.4922 36.6013C54.3583 32.3175 53.8684 27.8704 52.0907 23.8778C50.3129 19.8853 47.3356 16.5457 43.5725 14.3231C39.8094 12.1006 35.4474 11.1054 31.0927 11.476L31.9597 21.664C34.1975 21.4735 36.439 21.9849 38.3727 23.127C40.3065 24.2691 41.8365 25.9853 42.75 28.0369C43.6635 30.0886 43.9153 32.3739 43.4702 34.5752C43.0252 36.7765 41.9055 38.7845 40.2667 40.3202C38.6279 41.8558 36.5514 42.8428 34.3259 43.144C32.1003 43.4453 29.8362 43.0457 27.8482 42.001C25.8601 40.9562 24.2469 39.3181 23.2327 37.3142C22.2186 35.3104 21.8538 33.0405 22.189 30.8198L12.0789 29.2933Z" fill="#FAAC31"/>
<g filter="url(#filter0_d)">
<path d="M16.5662 30.4353C16.1156 34.1129 16.9212 37.8348 18.8521 40.997C20.7829 44.1592 23.7258 46.576 27.2031 47.8552C30.6803 49.1344 34.4879 49.2009 38.0077 48.0439C41.5275 46.8869 44.553 44.5743 46.5931 41.4815C48.6332 38.3886 49.5682 34.6971 49.2464 31.006C48.9245 27.3149 47.3646 23.841 44.82 21.1479C42.2753 18.4549 38.8952 16.7009 35.2282 16.1706C31.5613 15.6403 27.8227 16.3648 24.6194 18.2266L29.7642 27.0787C30.9716 26.3769 32.3807 26.1038 33.7628 26.3037C35.145 26.5036 36.419 27.1647 37.3781 28.1798C38.3373 29.1948 38.9252 30.5042 39.0465 31.8955C39.1678 33.2867 38.8154 34.6781 38.0465 35.8439C37.2775 37.0096 36.1371 37.8813 34.8105 38.3174C33.4838 38.7535 32.0486 38.7284 30.738 38.2462C29.4274 37.7641 28.3181 36.8531 27.5903 35.6613C26.8626 34.4694 26.5589 33.0665 26.7288 31.6803L16.5662 30.4353Z" fill="white"/>
</g>
<path d="M4.17056 28.9165C3.41494 35.084 4.66578 41.3309 7.73784 46.7319C10.8099 52.133 15.5398 56.401 21.227 58.9039C26.9143 61.4068 33.2564 62.0115 39.3141 60.6283C45.3718 59.2452 50.823 55.9478 54.8603 51.2246C58.8976 46.5013 61.3063 40.6033 61.7297 34.4041C62.1531 28.205 60.5687 22.0343 57.2111 16.8059C53.8535 11.5776 48.9013 7.56964 43.0879 5.37569C37.2745 3.18174 30.9091 2.91845 24.9343 4.62483L26.0199 8.42594C31.178 6.95281 36.6733 7.18011 41.6921 9.07417C46.7109 10.9682 50.9862 14.4283 53.8848 18.942C56.7835 23.4557 58.1513 28.783 57.7858 34.1348C57.4203 39.4866 55.3408 44.5784 51.8554 48.656C48.3699 52.7337 43.6638 55.5804 38.4341 56.7744C33.2044 57.9685 27.7292 57.4465 22.8194 55.2857C17.9095 53.125 13.8261 49.4403 11.174 44.7775C8.52185 40.1147 7.44198 34.7217 8.09431 29.3972L4.17056 28.9165Z" fill="#FAAC31"/>
<defs>
<filter id="filter0_d" x="9.56795" y="9.125" width="46.6168" height="46.6168" filterUnits="userSpaceOnUse" color-interpolation-filters="sRGB">
<feFlood flood-opacity="0" result="BackgroundImageFix"/>
<feColorMatrix in="SourceAlpha" type="matrix" values="0 0 0 0 0 0 0 0 0 0 0 0 0 0 0 0 0 0 127 0" result="hardAlpha"/>
<feMorphology radius="1" operator="dilate" in="SourceAlpha" result="effect1_dropShadow"/>
<feOffset/>
<feGaussianBlur stdDeviation="2"/>
<feComposite in2="hardAlpha" operator="out"/>
<feColorMatrix type="matrix" values="0 0 0 0 0 0 0 0 0 0 0 0 0 0 0 0 0 0 0.25 0"/>
<feBlend mode="normal" in2="BackgroundImageFix" result="effect1_dropShadow"/>
<feBlend mode="normal" in="SourceGraphic" in2="effect1_dropShadow" result="shape"/>
</filter>
</defs>
</svg>
