<svg width="459" height="72" viewBox="0 0 459 72" fill="none" xmlns="http://www.w3.org/2000/svg">
<path d="M0.810594 69.7756C0.410533 70.1564 0.394876 70.7893 0.775624 71.1894C1.15637 71.5895 1.78934 71.6051 2.18941 71.2244L0.810594 69.7756ZM457.352 71.2612C457.772 71.6194 458.403 71.5689 458.761 71.1485C459.119 70.728 459.069 70.0969 458.648 69.7387L457.352 71.2612ZM5.09892 68.6799C5.52252 68.3255 5.57864 67.6948 5.22426 67.2712C4.86989 66.8476 4.23922 66.7915 3.81561 67.1459L5.09892 68.6799ZM10.1039 62.1841C9.66204 62.5154 9.57236 63.1421 9.90363 63.584C10.2349 64.0259 10.8617 64.1156 11.3036 63.7843L10.1039 62.1841ZM17.7433 59.1611C18.1981 58.8477 18.3127 58.225 17.9994 57.7703C17.6861 57.3155 17.0634 57.2008 16.6086 57.5141L17.7433 59.1611ZM23.2925 53.0809C22.8271 53.3783 22.691 53.9967 22.9884 54.462C23.2858 54.9274 23.9041 55.0635 24.3695 54.7661L23.2925 53.0809ZM31.1098 50.6078C31.5843 50.3252 31.7397 49.7114 31.4571 49.2369C31.1744 48.7625 30.5606 48.607 30.0862 48.8897L31.1098 50.6078ZM37.0481 44.8809C36.5655 45.1495 36.392 45.7585 36.6606 46.241C36.9292 46.7236 37.5381 46.8971 38.0207 46.6285L37.0481 44.8809ZM44.9967 42.8724C45.4865 42.6173 45.6768 42.0134 45.4217 41.5236C45.1666 41.0338 44.5627 40.8435 44.0728 41.0986L44.9967 42.8724ZM51.197 37.5081C50.7006 37.7502 50.4944 38.3488 50.7365 38.8452C50.9785 39.3416 51.5771 39.5478 52.0736 39.3058L51.197 37.5081ZM59.2504 35.9199C59.7528 35.6906 59.9743 35.0975 59.745 34.595C59.5157 34.0926 58.9225 33.8711 58.4201 34.1004L59.2504 35.9199ZM65.73 30.8739C65.2221 31.0907 64.986 31.6782 65.2028 32.1861C65.4196 32.6941 66.0071 32.9302 66.5151 32.7134L65.73 30.8739ZM73.86 29.6833C74.3731 29.4788 74.6232 28.8971 74.4187 28.3841C74.2142 27.8711 73.6325 27.621 73.1195 27.8254L73.86 29.6833ZM80.5839 24.9515C80.0662 25.1439 79.8025 25.7196 79.9949 26.2373C80.1873 26.7549 80.763 27.0186 81.2807 26.8262L80.5839 24.9515ZM88.7742 24.1387C89.2961 23.9582 89.5729 23.3887 89.3924 22.8668C89.2119 22.3448 88.6425 22.068 88.1205 22.2485L88.7742 24.1387ZM95.6878 19.726C95.162 19.8948 94.8725 20.458 95.0414 20.9838C95.2102 21.5097 95.7733 21.7991 96.2992 21.6303L95.6878 19.726ZM103.868 19.2913C104.397 19.134 104.699 18.5773 104.541 18.0479C104.384 17.5185 103.827 17.2169 103.298 17.3742L103.868 19.2913ZM110.97 15.1836C110.437 15.3296 110.123 15.8797 110.269 16.4123C110.415 16.945 110.966 17.2584 111.498 17.1124L110.97 15.1836ZM119.192 15.0907C119.727 14.9559 120.052 14.4125 119.918 13.8769C119.783 13.3413 119.239 13.0164 118.704 13.1512L119.192 15.0907ZM126.502 11.2743C125.964 11.398 125.628 11.9346 125.752 12.4729C125.876 13.0112 126.412 13.3472 126.95 13.2235L126.502 11.2743ZM134.676 11.5298C135.217 11.4169 135.563 10.8872 135.45 10.3465C135.338 9.80591 134.808 9.45915 134.267 9.57202L134.676 11.5298ZM142.088 8.01966C141.546 8.12185 141.188 8.64467 141.291 9.18742C141.393 9.73017 141.916 10.0873 142.458 9.98513L142.088 8.01966ZM150.306 8.58666C150.851 8.49504 151.218 7.97925 151.126 7.43462C151.035 6.88999 150.519 6.52275 149.974 6.61437L150.306 8.58666ZM157.853 5.36609C157.306 5.44735 156.93 5.95607 157.011 6.50234C157.092 7.04861 157.601 7.42558 158.147 7.34432L157.853 5.36609ZM165.997 6.25133C166.545 6.18024 166.932 5.67863 166.86 5.13094C166.789 4.58325 166.288 4.19688 165.74 4.26796L165.997 6.25133ZM173.696 3.30977C173.147 3.37079 172.752 3.86522 172.813 4.41413C172.874 4.96303 173.368 5.35854 173.917 5.29753L173.696 3.30977ZM181.805 4.49243C182.355 4.44125 182.759 3.95397 182.708 3.40407C182.657 2.85416 182.169 2.44986 181.619 2.50103L181.805 4.49243ZM189.564 1.83225C189.014 1.87375 188.601 2.35385 188.642 2.90457C188.684 3.45529 189.164 3.8681 189.715 3.8266L189.564 1.83225ZM197.689 3.29549C198.24 3.26355 198.661 2.7907 198.629 2.23934C198.597 1.68798 198.124 1.2669 197.573 1.29883L197.689 3.29549ZM205.497 0.906996C204.945 0.929646 204.516 1.39535 204.539 1.94717C204.561 2.49899 205.027 2.92796 205.579 2.90531L205.497 0.906996ZM213.55 2.64485C214.102 2.6314 214.538 2.17291 214.525 1.62079C214.511 1.06867 214.053 0.631992 213.501 0.645445L213.55 2.64485ZM221.463 0.516355C220.911 0.520837 220.466 0.972171 220.471 1.52444C220.475 2.0767 220.927 2.52077 221.479 2.51629L221.463 0.516355ZM229.645 2.51729C230.197 2.5219 230.648 2.07794 230.653 1.52568C230.658 0.973413 230.214 0.521974 229.661 0.51736L229.645 2.51729ZM237.877 0.654321C237.325 0.640502 236.866 1.07687 236.852 1.62899C236.838 2.1811 237.275 2.63988 237.827 2.65369L237.877 0.654321ZM246.055 2.92951C246.607 2.95271 247.073 2.5242 247.096 1.97241C247.119 1.42061 246.691 0.954478 246.139 0.931271L246.055 2.92951ZM254.333 1.34597C253.782 1.31333 253.308 1.7338 253.276 2.28512C253.243 2.83644 253.663 3.30983 254.215 3.34248L254.333 1.34597ZM262.424 3.90037C262.974 3.94264 263.455 3.5305 263.497 2.97984C263.539 2.42917 263.127 1.94851 262.577 1.90624L262.424 3.90037ZM270.789 2.60945C270.239 2.55747 269.751 2.96105 269.699 3.51088C269.647 4.06072 270.051 4.54859 270.601 4.60057L270.789 2.60945ZM278.719 5.44096C279.268 5.50272 279.763 5.10788 279.825 4.55906C279.887 4.01024 279.492 3.51527 278.943 3.45351L278.719 5.44096ZM287.163 4.45421C286.615 4.38246 286.113 4.76823 286.041 5.31583C285.969 5.86344 286.355 6.36552 286.903 6.43726L287.163 4.45421ZM295.024 7.57691C295.57 7.65869 296.079 7.28221 296.161 6.73601C296.243 6.18981 295.866 5.68074 295.32 5.59896L295.024 7.57691ZM303.417 6.88778C302.872 6.79591 302.356 7.16292 302.265 7.70751C302.173 8.2521 302.54 8.76805 303.084 8.85992L303.417 6.88778ZM311.197 10.3072C311.739 10.4094 312.262 10.0522 312.364 9.50944C312.466 8.96668 312.109 8.44388 311.566 8.34173L311.197 10.3072ZM319.656 9.94421C319.116 9.83172 318.586 10.1789 318.474 10.7196C318.361 11.2603 318.708 11.7898 319.249 11.9023L319.656 9.94421ZM327.242 13.6455C327.781 13.7684 328.317 13.4316 328.44 12.8931C328.563 12.3547 328.226 11.8186 327.687 11.6957L327.242 13.6455ZM335.693 13.6052C335.157 13.4718 334.615 13.7981 334.481 14.3341C334.348 14.87 334.674 15.4126 335.21 15.546L335.693 13.6052ZM343.173 17.612C343.706 17.756 344.255 17.4406 344.399 16.9074C344.543 16.3742 344.228 15.8252 343.694 15.6812L343.173 17.612ZM351.635 17.9121C351.105 17.7573 350.55 18.0617 350.395 18.5918C350.24 19.122 350.545 19.6772 351.075 19.832L351.635 17.9121ZM358.917 22.2076C359.444 22.3731 360.005 22.0801 360.17 21.5533C360.336 21.0264 360.043 20.465 359.516 20.2995L358.917 22.2076ZM367.338 22.8457C366.815 22.6693 366.248 22.9506 366.071 23.474C365.895 23.9973 366.176 24.5646 366.699 24.741L367.338 22.8457ZM374.423 27.4348C374.943 27.6222 375.516 27.3529 375.703 26.8334C375.891 26.3138 375.622 25.7408 375.102 25.5534L374.423 27.4348ZM382.831 28.4348C382.316 28.2363 381.737 28.4932 381.539 29.0086C381.34 29.524 381.597 30.1027 382.112 30.3012L382.831 28.4348ZM389.739 33.3344C390.25 33.5442 390.834 33.3001 391.044 32.7892C391.253 32.2783 391.009 31.6941 390.498 31.4843L389.739 33.3344ZM398.09 34.7007C397.584 34.4795 396.994 34.7105 396.773 35.2165C396.552 35.7226 396.783 36.3121 397.289 36.5333L398.09 34.7007ZM404.756 39.8993C405.257 40.1321 405.852 39.9148 406.084 39.414C406.317 38.9131 406.1 38.3184 405.599 38.0857L404.756 39.8993ZM413.028 41.6457C412.533 41.4011 411.933 41.6042 411.688 42.0993C411.444 42.5945 411.647 43.1942 412.142 43.4388L413.028 41.6457ZM419.473 47.1737C419.961 47.4306 420.566 47.2424 420.823 46.7535C421.08 46.2646 420.892 45.66 420.403 45.4032L419.473 47.1737ZM427.669 49.3413C427.187 49.0718 426.578 49.2441 426.308 49.7261C426.039 50.2082 426.211 50.8175 426.693 51.087L427.669 49.3413ZM433.754 55.1619C434.228 55.4447 434.842 55.2893 435.125 54.8148C435.407 54.3404 435.252 53.7266 434.777 53.4439L433.754 55.1619ZM441.84 57.7976C441.374 57.5005 440.756 57.6371 440.459 58.1026C440.162 58.5682 440.298 59.1864 440.764 59.4836L441.84 57.7976ZM447.592 64.0061C448.047 64.3194 448.669 64.2046 448.982 63.7497C449.296 63.2949 449.181 62.6722 448.726 62.3589L447.592 64.0061ZM455.43 67.1933C454.99 66.8591 454.363 66.9447 454.029 67.3845C453.695 67.8242 453.78 68.4515 454.22 68.7857L455.43 67.1933ZM1.5 70.5C2.18941 71.2244 2.18937 71.2244 2.18933 71.2244C2.18932 71.2244 2.18929 71.2245 2.18928 71.2245C2.18925 71.2245 2.18924 71.2245 2.18924 71.2245C2.18925 71.2245 2.18931 71.2245 2.18944 71.2243C2.18969 71.2241 2.19018 71.2236 2.19091 71.2229C2.19236 71.2216 2.19478 71.2193 2.19816 71.2161C2.20491 71.2097 2.21549 71.1997 2.22992 71.1862C2.25876 71.1592 2.30296 71.118 2.36253 71.063C2.48166 70.953 2.66228 70.7881 2.90452 70.5715C3.38903 70.1384 4.12006 69.4988 5.09892 68.6799L3.81561 67.1459C2.81954 67.9792 2.07195 68.6331 1.57155 69.0805C1.32134 69.3042 1.13294 69.4762 1.00617 69.5932C0.942783 69.6517 0.894806 69.6964 0.862217 69.727C0.845923 69.7422 0.833475 69.754 0.824872 69.7621C0.820571 69.7662 0.817231 69.7693 0.814851 69.7716C0.813661 69.7727 0.812712 69.7736 0.812002 69.7743C0.811648 69.7746 0.811353 69.7749 0.811118 69.7751C0.811001 69.7752 0.810899 69.7753 0.810811 69.7754C0.810768 69.7755 0.810713 69.7755 0.810692 69.7755C0.810641 69.7756 0.810594 69.7756 1.5 70.5ZM11.3036 63.7843C13.1633 62.3902 15.3094 60.838 17.7433 59.1611L16.6086 57.5141C14.1521 59.2065 11.9845 60.7743 10.1039 62.1841L11.3036 63.7843ZM24.3695 54.7661C26.4661 53.4263 28.7126 52.036 31.1098 50.6078L30.0862 48.8897C27.6707 50.3287 25.4064 51.73 23.2925 53.0809L24.3695 54.7661ZM38.0207 46.6285C40.2415 45.3925 42.5667 44.1381 44.9967 42.8724L44.0728 41.0986C41.6263 42.3729 39.2848 43.636 37.0481 44.8809L38.0207 46.6285ZM52.0736 39.3058C54.3844 38.1791 56.7766 37.0488 59.2504 35.9199L58.4201 34.1004C55.9306 35.2365 53.523 36.374 51.197 37.5081L52.0736 39.3058ZM66.5151 32.7134C68.8962 31.6972 71.3445 30.686 73.86 29.6833L73.1195 27.8254C70.5889 28.8341 68.1258 29.8515 65.73 30.8739L66.5151 32.7134ZM81.2807 26.8262C83.721 25.9192 86.2188 25.0224 88.7742 24.1387L88.1205 22.2485C85.5506 23.1373 83.0384 24.0392 80.5839 24.9515L81.2807 26.8262ZM96.2992 21.6303C98.7723 20.8363 101.295 20.0558 103.868 19.2913L103.298 17.3742C100.711 18.1429 98.1747 18.9276 95.6878 19.726L96.2992 21.6303ZM111.498 17.1124C114.018 16.4218 116.583 15.7472 119.192 15.0907L118.704 13.1512C116.081 13.8111 113.503 14.4892 110.97 15.1836L111.498 17.1124ZM126.95 13.2235C129.486 12.6408 132.061 12.0757 134.676 11.5298L134.267 9.57202C131.639 10.1207 129.051 10.6887 126.502 11.2743L126.95 13.2235ZM142.458 9.98513C145.038 9.49946 147.654 9.03284 150.306 8.58666L149.974 6.61437C147.309 7.0627 144.68 7.5316 142.088 8.01966L142.458 9.98513ZM158.147 7.34432C160.731 6.95996 163.348 6.59523 165.997 6.25133L165.74 4.26796C163.078 4.61347 160.449 4.97991 157.853 5.36609L158.147 7.34432ZM173.917 5.29753C176.516 5.00865 179.145 4.73993 181.805 4.49243L181.619 2.50103C178.948 2.74964 176.307 3.01957 173.696 3.30977L173.917 5.29753ZM189.715 3.8266C192.344 3.62844 195.002 3.45108 197.689 3.29549L197.573 1.29883C194.875 1.4551 192.205 1.63322 189.564 1.83225L189.715 3.8266ZM205.579 2.90531C208.209 2.79733 210.866 2.71023 213.55 2.64485L213.501 0.645445C210.807 0.711095 208.138 0.798559 205.497 0.906996L205.579 2.90531ZM221.479 2.51629C222.813 2.50546 224.153 2.5 225.5 2.5V0.5C224.148 0.5 222.802 0.505484 221.463 0.516355L221.479 2.51629ZM225.5 2.5C226.887 2.5 228.269 2.5058 229.645 2.51729L229.661 0.51736C228.28 0.505822 226.893 0.5 225.5 0.5V2.5ZM237.827 2.65369C240.595 2.72297 243.337 2.81521 246.055 2.92951L246.139 0.931271C243.41 0.816501 240.656 0.723878 237.877 0.654321L237.827 2.65369ZM254.215 3.34248C256.978 3.5061 259.714 3.6924 262.424 3.90037L262.577 1.90624C259.856 1.69738 257.108 1.51029 254.333 1.34597L254.215 3.34248ZM270.601 4.60057C273.336 4.85917 276.042 5.13967 278.719 5.44096L278.943 3.45351C276.254 3.15089 273.536 2.86917 270.789 2.60945L270.601 4.60057ZM286.903 6.43726C289.642 6.79606 292.349 7.17637 295.024 7.57691L295.32 5.59896C292.633 5.19662 289.913 4.81461 287.163 4.45421L286.903 6.43726ZM303.084 8.85992C305.823 9.32199 308.528 9.80492 311.197 10.3072L311.566 8.34173C308.885 7.83711 306.169 7.35196 303.417 6.88778L303.084 8.85992ZM319.249 11.9023C321.952 12.4646 324.616 13.0462 327.242 13.6455L327.687 11.6957C325.049 11.0935 322.372 10.5091 319.656 9.94421L319.249 11.9023ZM335.21 15.546C337.908 16.2174 340.562 16.9067 343.173 17.612L343.694 15.6812C341.071 14.9725 338.404 14.2798 335.693 13.6052L335.21 15.546ZM351.075 19.832C353.737 20.6091 356.351 21.4017 358.917 22.2076L359.516 20.2995C356.938 19.4896 354.311 18.693 351.635 17.9121L351.075 19.832ZM366.699 24.741C369.33 25.6275 371.905 26.5264 374.423 27.4348L375.102 25.5534C372.57 24.6403 369.982 23.7368 367.338 22.8457L366.699 24.741ZM382.112 30.3012C384.721 31.3057 387.263 32.318 389.739 33.3344L390.498 31.4843C388.009 30.4623 385.453 29.4446 382.831 28.4348L382.112 30.3012ZM397.289 36.5333C399.859 37.6564 402.348 38.78 404.756 39.8993L405.599 38.0857C403.177 36.96 400.674 35.83 398.09 34.7007L397.289 36.5333ZM412.142 43.4388C414.691 44.6983 417.135 45.9457 419.473 47.1737L420.403 45.4032C418.051 44.1675 415.592 42.9127 413.028 41.6457L412.142 43.4388ZM426.693 51.087C429.198 52.4874 431.552 53.8497 433.754 55.1619L434.777 53.4439C432.56 52.1224 430.19 50.7509 427.669 49.3413L426.693 51.087ZM440.764 59.4836C443.336 61.1252 445.613 62.6434 447.592 64.0061L448.726 62.3589C446.729 60.9834 444.432 59.4522 441.84 57.7976L440.764 59.4836ZM454.22 68.7857C455.268 69.582 456.054 70.2037 456.577 70.625C456.838 70.8356 457.033 70.9961 457.163 71.1032C457.227 71.1568 457.275 71.197 457.307 71.2235C457.323 71.2367 457.334 71.2465 457.342 71.2528C457.345 71.256 457.348 71.2583 457.35 71.2597C457.35 71.2604 457.351 71.2608 457.351 71.2611C457.352 71.2612 457.352 71.2613 457.352 71.2613C457.352 71.2613 457.352 71.2613 457.352 71.2613C457.352 71.2613 457.352 71.2613 457.352 71.2613C457.352 71.2613 457.352 71.2612 458 70.5C458.648 69.7387 458.648 69.7387 458.648 69.7387C458.648 69.7387 458.648 69.7386 458.648 69.7386C458.648 69.7385 458.648 69.7384 458.648 69.7383C458.648 69.7381 458.647 69.7379 458.647 69.7375C458.646 69.7369 458.645 69.7361 458.644 69.735C458.642 69.7329 458.638 69.7299 458.633 69.726C458.624 69.7183 458.611 69.7071 458.594 69.6924C458.559 69.663 458.507 69.6199 458.439 69.5635C458.303 69.4506 458.1 69.2843 457.832 69.0678C457.295 68.6349 456.493 68.0014 455.43 67.1933L454.22 68.7857Z" fill="white" fill-opacity="0.14"/>
</svg>
