<svg width="591" height="509" viewBox="0 0 591 509" fill="none" xmlns="http://www.w3.org/2000/svg">
<path d="M251.905 242.035C276.7 242.394 310.042 230.69 319.603 249.576C336.801 283.546 315.911 356.995 340.878 380.042" stroke="white" stroke-width="4"/>
<g filter="url(#filter0_d)">
<path fill-rule="evenodd" clip-rule="evenodd" d="M319.662 453.842L318.737 445.432L294.907 448.053L292.439 425.625L284.028 426.55L286.496 448.979L286.496 448.979L287.421 457.389L311.251 454.768L313.719 477.196L322.129 476.271L319.662 453.842L319.662 453.842Z" fill="white"/>
</g>
<path d="M449.042 237.257C418.601 243.202 369.347 228.676 359.985 244.827C349.652 257.768 358.765 296.361 348.84 309.879" stroke="white" stroke-width="4"/>
<path d="M588.574 256.247C588.136 323.08 561.166 387.001 513.598 433.95C466.03 480.898 401.76 507.027 334.927 506.589C268.094 506.15 204.172 479.181 157.224 431.613C110.276 384.045 84.1465 319.775 84.5848 252.942L286.539 254.266C286.452 267.538 291.64 280.3 300.963 289.746C310.286 299.192 322.98 304.548 336.251 304.635C349.523 304.722 362.286 299.533 371.732 290.21C381.178 280.887 386.533 268.194 386.62 254.922L588.574 256.247Z" fill="#FAAC31"/>
<rect x="161.948" y="161.961" width="99" height="83" rx="14" transform="rotate(0.193813 161.948 161.961)" fill="#FAAC31"/>
<g filter="url(#filter1_d)">
<rect x="440.998" y="174.657" width="85.5244" height="79.2516" rx="6" transform="rotate(0.193813 440.998 174.657)" fill="#FAAC31"/>
</g>
<g filter="url(#filter2_dddddd)">
<rect x="483.328" y="235.52" width="18.1139" height="4.1391" rx="2.06955" transform="rotate(0.193813 483.328 235.52)" fill="#1B1B1B"/>
</g>
<rect x="160.993" y="245.623" width="99" height="7.05189" rx="3.52595" transform="rotate(0.193813 160.993 245.623)" fill="#FAAC31"/>
<rect x="166.108" y="165.473" width="90.6561" height="76.0046" rx="14" transform="rotate(0.193813 166.108 165.473)" fill="#152432"/>
<rect x="173.964" y="177.89" width="28.9133" height="2.12055" rx="1.06028" transform="rotate(0.193813 173.964 177.89)" fill="#81FBAA"/>
<rect x="173.536" y="184.258" width="54.4351" height="2.12055" rx="1.06028" transform="rotate(0.193813 173.536 184.258)" fill="#EBEBEB" fill-opacity="0.14"/>
<rect x="173.639" y="189.576" width="54.4351" height="2.12055" rx="1.06028" transform="rotate(0.193813 173.639 189.576)" fill="#EBEBEB" fill-opacity="0.14"/>
<rect x="173.781" y="194.673" width="54.4351" height="2.12055" rx="1.06028" transform="rotate(0.193813 173.781 194.673)" fill="#EBEBEB" fill-opacity="0.14"/>
<rect x="455.85" y="188.639" width="16.2403" height="34.0212" rx="4" transform="rotate(1.11294 455.85 188.639)" fill="white"/>
<g filter="url(#filter3_dddddd)">
<rect x="454.7" y="195.356" width="11.2594" height="23.0589" rx="4" transform="rotate(1.11294 454.7 195.356)" fill="#1B1B1B"/>
</g>
<rect x="494.29" y="188.19" width="16.2403" height="34.0212" rx="4" transform="rotate(1.11294 494.29 188.19)" fill="white"/>
<rect x="493.139" y="194.906" width="11.2594" height="23.0589" rx="4" transform="rotate(1.11294 493.139 194.906)" fill="#1B1B1B"/>
<path fill-rule="evenodd" clip-rule="evenodd" d="M519.78 250.463C520.912 250.752 522.151 250.318 522.838 249.292C523.524 248.266 523.453 246.955 522.754 246.019L519.78 250.463ZM518.209 249.412C517.51 248.476 517.439 247.165 518.125 246.139C518.812 245.113 520.051 244.679 521.183 244.968L518.209 249.412ZM522.053 245.356L522.064 245.363C522.062 245.362 522.06 245.361 522.058 245.359C522.056 245.358 522.054 245.357 522.053 245.356Z" fill="#D19330"/>
<path fill-rule="evenodd" clip-rule="evenodd" d="M444.201 248.814C444.602 249.91 445.661 250.688 446.895 250.674C448.129 250.661 449.171 249.86 449.548 248.755L444.201 248.814ZM444.18 246.924C444.557 245.818 445.599 245.018 446.833 245.004C448.067 244.991 449.126 245.768 449.527 246.865L444.18 246.924ZM449.699 247.801L449.699 247.816C449.699 247.813 449.699 247.811 449.699 247.808C449.699 247.806 449.699 247.803 449.699 247.801Z" fill="#D19330"/>
<g filter="url(#filter4_dddddd)">
<line x1="85.5958" y1="256.714" x2="133.593" y2="257.216" stroke="white" stroke-width="11" stroke-linecap="round"/>
</g>
<path d="M559.536 255.351L577.536 255.388L577.482 281.388L568.448 280.542L559.482 281.351L559.536 255.351Z" fill="#D19330"/>
<defs>
<filter id="filter0_d" x="254.339" y="405.19" width="67.7901" height="74.6278" filterUnits="userSpaceOnUse" color-interpolation-filters="sRGB">
<feFlood flood-opacity="0" result="BackgroundImageFix"/>
<feColorMatrix in="SourceAlpha" type="matrix" values="0 0 0 0 0 0 0 0 0 0 0 0 0 0 0 0 0 0 127 0" result="hardAlpha"/>
<feOffset dx="-26.7202" dy="-14.8446"/>
<feGaussianBlur stdDeviation="1.48446"/>
<feColorMatrix type="matrix" values="0 0 0 0 0 0 0 0 0 0 0 0 0 0 0 0 0 0 0.25 0"/>
<feBlend mode="normal" in2="BackgroundImageFix" result="effect1_dropShadow"/>
<feBlend mode="normal" in="SourceGraphic" in2="effect1_dropShadow" result="shape"/>
</filter>
<filter id="filter1_d" x="435.41" y="174.657" width="96.4322" height="91.5106" filterUnits="userSpaceOnUse" color-interpolation-filters="sRGB">
<feFlood flood-opacity="0" result="BackgroundImageFix"/>
<feColorMatrix in="SourceAlpha" type="matrix" values="0 0 0 0 0 0 0 0 0 0 0 0 0 0 0 0 0 0 127 0" result="hardAlpha"/>
<feOffset dy="6.6501"/>
<feGaussianBlur stdDeviation="2.66004"/>
<feColorMatrix type="matrix" values="0 0 0 0 0 0 0 0 0 0 0 0 0 0 0 0 0 0 0.0282725 0"/>
<feBlend mode="normal" in2="BackgroundImageFix" result="effect1_dropShadow"/>
<feBlend mode="normal" in="SourceGraphic" in2="effect1_dropShadow" result="shape"/>
</filter>
<filter id="filter2_dddddd" x="403.314" y="235.52" width="178.128" height="184.2" filterUnits="userSpaceOnUse" color-interpolation-filters="sRGB">
<feFlood flood-opacity="0" result="BackgroundImageFix"/>
<feColorMatrix in="SourceAlpha" type="matrix" values="0 0 0 0 0 0 0 0 0 0 0 0 0 0 0 0 0 0 127 0" result="hardAlpha"/>
<feOffset dy="2.76726"/>
<feGaussianBlur stdDeviation="1.1069"/>
<feColorMatrix type="matrix" values="0 0 0 0 0 0 0 0 0 0 0 0 0 0 0 0 0 0 0.0196802 0"/>
<feBlend mode="normal" in2="BackgroundImageFix" result="effect1_dropShadow"/>
<feColorMatrix in="SourceAlpha" type="matrix" values="0 0 0 0 0 0 0 0 0 0 0 0 0 0 0 0 0 0 127 0" result="hardAlpha"/>
<feOffset dy="6.6501"/>
<feGaussianBlur stdDeviation="2.66004"/>
<feColorMatrix type="matrix" values="0 0 0 0 0 0 0 0 0 0 0 0 0 0 0 0 0 0 0.0282725 0"/>
<feBlend mode="normal" in2="effect1_dropShadow" result="effect2_dropShadow"/>
<feColorMatrix in="SourceAlpha" type="matrix" values="0 0 0 0 0 0 0 0 0 0 0 0 0 0 0 0 0 0 127 0" result="hardAlpha"/>
<feOffset dy="12.5216"/>
<feGaussianBlur stdDeviation="5.00862"/>
<feColorMatrix type="matrix" values="0 0 0 0 0 0 0 0 0 0 0 0 0 0 0 0 0 0 0.035 0"/>
<feBlend mode="normal" in2="effect2_dropShadow" result="effect3_dropShadow"/>
<feColorMatrix in="SourceAlpha" type="matrix" values="0 0 0 0 0 0 0 0 0 0 0 0 0 0 0 0 0 0 127 0" result="hardAlpha"/>
<feOffset dy="22.3363"/>
<feGaussianBlur stdDeviation="8.93452"/>
<feColorMatrix type="matrix" values="0 0 0 0 0 0 0 0 0 0 0 0 0 0 0 0 0 0 0.0417275 0"/>
<feBlend mode="normal" in2="effect3_dropShadow" result="effect4_dropShadow"/>
<feColorMatrix in="SourceAlpha" type="matrix" values="0 0 0 0 0 0 0 0 0 0 0 0 0 0 0 0 0 0 127 0" result="hardAlpha"/>
<feOffset dy="41.7776"/>
<feGaussianBlur stdDeviation="16.711"/>
<feColorMatrix type="matrix" values="0 0 0 0 0 0 0 0 0 0 0 0 0 0 0 0 0 0 0.0503198 0"/>
<feBlend mode="normal" in2="effect4_dropShadow" result="effect5_dropShadow"/>
<feColorMatrix in="SourceAlpha" type="matrix" values="0 0 0 0 0 0 0 0 0 0 0 0 0 0 0 0 0 0 127 0" result="hardAlpha"/>
<feOffset dy="100"/>
<feGaussianBlur stdDeviation="40"/>
<feColorMatrix type="matrix" values="0 0 0 0 0 0 0 0 0 0 0 0 0 0 0 0 0 0 0.07 0"/>
<feBlend mode="normal" in2="effect5_dropShadow" result="effect6_dropShadow"/>
<feBlend mode="normal" in="SourceGraphic" in2="effect6_dropShadow" result="shape"/>
</filter>
<filter id="filter3_dddddd" x="374.252" y="195.356" width="171.705" height="203.273" filterUnits="userSpaceOnUse" color-interpolation-filters="sRGB">
<feFlood flood-opacity="0" result="BackgroundImageFix"/>
<feColorMatrix in="SourceAlpha" type="matrix" values="0 0 0 0 0 0 0 0 0 0 0 0 0 0 0 0 0 0 127 0" result="hardAlpha"/>
<feOffset dy="2.76726"/>
<feGaussianBlur stdDeviation="1.1069"/>
<feColorMatrix type="matrix" values="0 0 0 0 0 0 0 0 0 0 0 0 0 0 0 0 0 0 0.0196802 0"/>
<feBlend mode="normal" in2="BackgroundImageFix" result="effect1_dropShadow"/>
<feColorMatrix in="SourceAlpha" type="matrix" values="0 0 0 0 0 0 0 0 0 0 0 0 0 0 0 0 0 0 127 0" result="hardAlpha"/>
<feOffset dy="6.6501"/>
<feGaussianBlur stdDeviation="2.66004"/>
<feColorMatrix type="matrix" values="0 0 0 0 0 0 0 0 0 0 0 0 0 0 0 0 0 0 0.0282725 0"/>
<feBlend mode="normal" in2="effect1_dropShadow" result="effect2_dropShadow"/>
<feColorMatrix in="SourceAlpha" type="matrix" values="0 0 0 0 0 0 0 0 0 0 0 0 0 0 0 0 0 0 127 0" result="hardAlpha"/>
<feOffset dy="12.5216"/>
<feGaussianBlur stdDeviation="5.00862"/>
<feColorMatrix type="matrix" values="0 0 0 0 0 0 0 0 0 0 0 0 0 0 0 0 0 0 0.035 0"/>
<feBlend mode="normal" in2="effect2_dropShadow" result="effect3_dropShadow"/>
<feColorMatrix in="SourceAlpha" type="matrix" values="0 0 0 0 0 0 0 0 0 0 0 0 0 0 0 0 0 0 127 0" result="hardAlpha"/>
<feOffset dy="22.3363"/>
<feGaussianBlur stdDeviation="8.93452"/>
<feColorMatrix type="matrix" values="0 0 0 0 0 0 0 0 0 0 0 0 0 0 0 0 0 0 0.0417275 0"/>
<feBlend mode="normal" in2="effect3_dropShadow" result="effect4_dropShadow"/>
<feColorMatrix in="SourceAlpha" type="matrix" values="0 0 0 0 0 0 0 0 0 0 0 0 0 0 0 0 0 0 127 0" result="hardAlpha"/>
<feOffset dy="41.7776"/>
<feGaussianBlur stdDeviation="16.711"/>
<feColorMatrix type="matrix" values="0 0 0 0 0 0 0 0 0 0 0 0 0 0 0 0 0 0 0.0503198 0"/>
<feBlend mode="normal" in2="effect4_dropShadow" result="effect5_dropShadow"/>
<feColorMatrix in="SourceAlpha" type="matrix" values="0 0 0 0 0 0 0 0 0 0 0 0 0 0 0 0 0 0 127 0" result="hardAlpha"/>
<feOffset dy="100"/>
<feGaussianBlur stdDeviation="40"/>
<feColorMatrix type="matrix" values="0 0 0 0 0 0 0 0 0 0 0 0 0 0 0 0 0 0 0.07 0"/>
<feBlend mode="normal" in2="effect5_dropShadow" result="effect6_dropShadow"/>
<feBlend mode="normal" in="SourceGraphic" in2="effect6_dropShadow" result="shape"/>
</filter>
<filter id="filter4_dddddd" x="0.0385742" y="251.157" width="219.112" height="191.616" filterUnits="userSpaceOnUse" color-interpolation-filters="sRGB">
<feFlood flood-opacity="0" result="BackgroundImageFix"/>
<feColorMatrix in="SourceAlpha" type="matrix" values="0 0 0 0 0 0 0 0 0 0 0 0 0 0 0 0 0 0 127 0" result="hardAlpha"/>
<feOffset dy="2.76726"/>
<feGaussianBlur stdDeviation="1.1069"/>
<feColorMatrix type="matrix" values="0 0 0 0 0 0 0 0 0 0 0 0 0 0 0 0 0 0 0.0196802 0"/>
<feBlend mode="normal" in2="BackgroundImageFix" result="effect1_dropShadow"/>
<feColorMatrix in="SourceAlpha" type="matrix" values="0 0 0 0 0 0 0 0 0 0 0 0 0 0 0 0 0 0 127 0" result="hardAlpha"/>
<feOffset dy="6.6501"/>
<feGaussianBlur stdDeviation="2.66004"/>
<feColorMatrix type="matrix" values="0 0 0 0 0 0 0 0 0 0 0 0 0 0 0 0 0 0 0.0282725 0"/>
<feBlend mode="normal" in2="effect1_dropShadow" result="effect2_dropShadow"/>
<feColorMatrix in="SourceAlpha" type="matrix" values="0 0 0 0 0 0 0 0 0 0 0 0 0 0 0 0 0 0 127 0" result="hardAlpha"/>
<feOffset dy="12.5216"/>
<feGaussianBlur stdDeviation="5.00862"/>
<feColorMatrix type="matrix" values="0 0 0 0 0 0 0 0 0 0 0 0 0 0 0 0 0 0 0.035 0"/>
<feBlend mode="normal" in2="effect2_dropShadow" result="effect3_dropShadow"/>
<feColorMatrix in="SourceAlpha" type="matrix" values="0 0 0 0 0 0 0 0 0 0 0 0 0 0 0 0 0 0 127 0" result="hardAlpha"/>
<feOffset dy="22.3363"/>
<feGaussianBlur stdDeviation="8.93452"/>
<feColorMatrix type="matrix" values="0 0 0 0 0 0 0 0 0 0 0 0 0 0 0 0 0 0 0.0417275 0"/>
<feBlend mode="normal" in2="effect3_dropShadow" result="effect4_dropShadow"/>
<feColorMatrix in="SourceAlpha" type="matrix" values="0 0 0 0 0 0 0 0 0 0 0 0 0 0 0 0 0 0 127 0" result="hardAlpha"/>
<feOffset dy="41.7776"/>
<feGaussianBlur stdDeviation="16.711"/>
<feColorMatrix type="matrix" values="0 0 0 0 0 0 0 0 0 0 0 0 0 0 0 0 0 0 0.0503198 0"/>
<feBlend mode="normal" in2="effect4_dropShadow" result="effect5_dropShadow"/>
<feColorMatrix in="SourceAlpha" type="matrix" values="0 0 0 0 0 0 0 0 0 0 0 0 0 0 0 0 0 0 127 0" result="hardAlpha"/>
<feOffset dy="100"/>
<feGaussianBlur stdDeviation="40"/>
<feColorMatrix type="matrix" values="0 0 0 0 0 0 0 0 0 0 0 0 0 0 0 0 0 0 0.07 0"/>
<feBlend mode="normal" in2="effect5_dropShadow" result="effect6_dropShadow"/>
<feBlend mode="normal" in="SourceGraphic" in2="effect6_dropShadow" result="shape"/>
</filter>
</defs>
</svg>
