<svg width="544" height="207" viewBox="0 0 544 207" fill="none" xmlns="http://www.w3.org/2000/svg">
<path d="M-565.968 2.41599C-562.512 8.75199 -558.576 16.624 -554.16 26.032C-549.552 35.248 -544.848 45.328 -540.048 56.272C-535.056 67.024 -530.16 78.064 -525.36 89.392C-520.56 100.72 -516.048 111.376 -511.824 121.36C-507.6 111.376 -503.088 100.72 -498.288 89.392C-493.488 78.064 -488.688 67.024 -483.888 56.272C-478.896 45.328 -474.192 35.248 -469.776 26.032C-465.168 16.624 -461.136 8.75199 -457.68 2.41599H-416.784C-414.864 15.664 -413.136 30.544 -411.6 47.056C-409.872 63.376 -408.432 80.464 -407.28 98.32C-405.936 115.984 -404.784 133.744 -403.824 151.6C-402.672 169.456 -401.712 186.256 -400.944 202H-444.72C-445.296 182.608 -446.064 161.488 -447.024 138.64C-447.984 115.792 -449.424 92.752 -451.344 69.52C-454.8 77.584 -458.64 86.512 -462.864 96.304C-467.088 106.096 -471.312 115.888 -475.536 125.68C-479.568 135.472 -483.504 144.88 -487.344 153.904C-491.184 162.736 -494.448 170.32 -497.136 176.656H-528.528C-531.216 170.32 -534.48 162.736 -538.32 153.904C-542.16 144.88 -546.192 135.472 -550.416 125.68C-554.448 115.888 -558.576 106.096 -562.8 96.304C-567.024 86.512 -570.864 77.584 -574.32 69.52C-576.24 92.752 -577.68 115.792 -578.64 138.64C-579.6 161.488 -580.368 182.608 -580.944 202H-624.72C-623.952 186.256 -623.088 169.456 -622.128 151.6C-620.976 133.744 -619.824 115.984 -618.672 98.32C-617.328 80.464 -615.888 63.376 -614.352 47.056C-612.624 30.544 -610.8 15.664 -608.88 2.41599H-565.968ZM-300.587 0.11199C-270.827 0.11199 -247.979 5.39199 -232.043 15.952C-216.107 26.32 -208.139 43.408 -208.139 67.216C-208.139 91.216 -216.203 108.592 -232.331 119.344C-248.459 129.904 -271.499 135.184 -301.451 135.184H-315.563V202H-360.491V5.29599C-350.699 3.37599 -340.331 2.03199 -329.387 1.26399C-318.443 0.495991 -308.843 0.11199 -300.587 0.11199ZM-297.707 38.416C-300.971 38.416 -304.235 38.512 -307.499 38.704C-310.571 38.896 -313.259 39.088 -315.563 39.28V96.88H-301.451C-285.899 96.88 -274.187 94.768 -266.315 90.544C-258.443 86.32 -254.507 78.448 -254.507 66.928C-254.507 61.36 -255.563 56.752 -257.675 53.104C-259.595 49.456 -262.475 46.576 -266.315 44.464C-269.963 42.16 -274.475 40.624 -279.851 39.856C-285.227 38.896 -291.179 38.416 -297.707 38.416ZM-97.0995 206.032C-111.115 206.032 -123.211 204.112 -133.387 200.272C-143.563 196.24 -152.011 190.768 -158.731 183.856C-165.259 176.752 -170.155 168.4 -173.419 158.8C-176.491 149.008 -178.027 138.256 -178.027 126.544V2.41599H-133.099V122.8C-133.099 130.864 -132.235 137.776 -130.507 143.536C-128.587 149.104 -126.091 153.712 -123.019 157.36C-119.755 160.816 -115.915 163.312 -111.499 164.848C-106.891 166.384 -101.899 167.152 -96.5235 167.152C-85.5795 167.152 -76.7475 163.792 -70.0275 157.072C-63.1155 150.352 -59.6595 138.928 -59.6595 122.8V2.41599H-14.7315V126.544C-14.7315 138.256 -16.3635 149.008 -19.6275 158.8C-22.8915 168.592 -27.8835 177.04 -34.6035 184.144C-41.3235 191.056 -49.8675 196.432 -60.2355 200.272C-70.6035 204.112 -82.8915 206.032 -97.0995 206.032ZM176.51 2.41599V40.72H116.318V202H71.3895V40.72H11.1975V2.41599H176.51ZM205.384 202V2.41599H340.168V40.144H250.312V79.312H330.088V116.176H250.312V164.272H346.792V202H205.384ZM438.504 0.11199C468.456 0.11199 491.4 5.48799 507.336 16.24C523.272 26.8 531.24 43.312 531.24 65.776C531.24 79.792 527.976 91.216 521.448 100.048C515.112 108.688 505.896 115.504 493.8 120.496C497.832 125.488 502.056 131.248 506.472 137.776C510.888 144.112 515.208 150.832 519.432 157.936C523.848 164.848 528.072 172.144 532.104 179.824C536.136 187.312 539.88 194.704 543.336 202H492.936C489.288 195.472 485.544 188.848 481.704 182.128C478.056 175.408 474.216 168.88 470.184 162.544C466.344 156.208 462.504 150.256 458.664 144.688C454.824 138.928 450.984 133.744 447.144 129.136H424.968V202H380.04V5.29599C389.832 3.37599 399.912 2.03199 410.28 1.26399C420.84 0.495991 430.248 0.11199 438.504 0.11199ZM441.096 38.416C437.832 38.416 434.856 38.512 432.168 38.704C429.672 38.896 427.272 39.088 424.968 39.28V93.424H437.64C454.536 93.424 466.632 91.312 473.928 87.088C481.224 82.864 484.872 75.664 484.872 65.488C484.872 55.696 481.128 48.784 473.64 44.752C466.344 40.528 455.496 38.416 441.096 38.416Z" fill="#E5E5E5" fill-opacity="0.05"/>
</svg>
