<svg width="13" height="23" viewBox="0 0 13 23" fill="none" xmlns="http://www.w3.org/2000/svg">
<path fill-rule="evenodd" clip-rule="evenodd" d="M0.679967 21.6197C0.276904 21.2165 0.0504761 20.6697 0.0504761 20.0996C0.0504761 19.5295 0.276904 18.9828 0.679967 18.5796L7.75992 11.4996L0.679967 4.41969C0.288327 4.0142 0.0716186 3.4711 0.0765172 2.90738C0.0814158 2.34366 0.30753 1.80441 0.706157 1.40578C1.10478 1.00716 1.64403 0.781042 2.20775 0.776143C2.77148 0.771245 3.31457 0.987953 3.72007 1.37959L12.3201 9.97959C12.7231 10.3828 12.9496 10.9295 12.9496 11.4996C12.9496 12.0697 12.7231 12.6165 12.3201 13.0197L3.72007 21.6197C3.31688 22.0228 2.77012 22.2492 2.20002 22.2492C1.62991 22.2492 1.08315 22.0228 0.679967 21.6197Z" fill="black"/>
</svg>
