<svg width="508" height="245" viewBox="0 0 508 245" fill="none" xmlns="http://www.w3.org/2000/svg">
<path d="M127.5 178.5C119.094 186.906 108.385 192.63 96.7258 194.949C85.0667 197.268 72.9818 196.078 61.9992 191.529C51.0166 186.98 41.6296 179.276 35.0253 169.392C28.421 159.508 24.8959 147.887 24.8959 136C24.8959 124.113 28.421 112.492 35.0253 102.608C41.6296 92.7239 51.0166 85.0202 61.9992 80.4711C72.9818 75.9219 85.0667 74.7317 96.7258 77.0508C108.385 79.3699 119.094 85.0943 127.5 93.5L115.948 105.052C109.827 98.9314 102.028 94.763 93.5385 93.0742C85.0486 91.3855 76.2485 92.2522 68.2512 95.5648C60.2539 98.8774 53.4185 104.487 48.6093 111.685C43.8001 118.882 41.2333 127.344 41.2333 136C41.2333 144.656 43.8001 153.118 48.6093 160.316C53.4185 167.513 60.2539 173.123 68.2512 176.435C76.2485 179.748 85.0486 180.615 93.5385 178.926C102.028 177.237 109.827 173.069 115.948 166.948L127.5 178.5Z" fill="#FAAC31"/>
<g filter="url(#filter0_d)">
<circle cx="85" cy="136" r="17" fill="#FAAC31"/>
</g>
<path d="M151.008 112.104C151.872 113.688 152.856 115.656 153.96 118.008C155.112 120.312 156.288 122.832 157.488 125.568C158.736 128.256 159.96 131.016 161.16 133.848C162.36 136.68 163.488 139.344 164.544 141.84C165.6 139.344 166.728 136.68 167.928 133.848C169.128 131.016 170.328 128.256 171.528 125.568C172.776 122.832 173.952 120.312 175.056 118.008C176.208 115.656 177.216 113.688 178.08 112.104H188.304C188.784 115.416 189.216 119.136 189.6 123.264C190.032 127.344 190.392 131.616 190.68 136.08C191.016 140.496 191.304 144.936 191.544 149.4C191.832 153.864 192.072 158.064 192.264 162H181.32C181.176 157.152 180.984 151.872 180.744 146.16C180.504 140.448 180.144 134.688 179.664 128.88C178.8 130.896 177.84 133.128 176.784 135.576C175.728 138.024 174.672 140.472 173.616 142.92C172.608 145.368 171.624 147.72 170.664 149.976C169.704 152.184 168.888 154.08 168.216 155.664H160.368C159.696 154.08 158.88 152.184 157.92 149.976C156.96 147.72 155.952 145.368 154.896 142.92C153.888 140.472 152.856 138.024 151.8 135.576C150.744 133.128 149.784 130.896 148.92 128.88C148.44 134.688 148.08 140.448 147.84 146.16C147.6 151.872 147.408 157.152 147.264 162H136.32C136.512 158.064 136.728 153.864 136.968 149.4C137.256 144.936 137.544 140.496 137.832 136.08C138.168 131.616 138.528 127.344 138.912 123.264C139.344 119.136 139.8 115.416 140.28 112.104H151.008ZM217.353 111.528C224.793 111.528 230.505 112.848 234.489 115.488C238.473 118.08 240.465 122.352 240.465 128.304C240.465 134.304 238.449 138.648 234.417 141.336C230.385 143.976 224.625 145.296 217.137 145.296H213.609V162H202.377V112.824C204.825 112.344 207.417 112.008 210.153 111.816C212.889 111.624 215.289 111.528 217.353 111.528ZM218.073 121.104C217.257 121.104 216.441 121.128 215.625 121.176C214.857 121.224 214.185 121.272 213.609 121.32V135.72H217.137C221.025 135.72 223.953 135.192 225.921 134.136C227.889 133.08 228.873 131.112 228.873 128.232C228.873 126.84 228.609 125.688 228.081 124.776C227.601 123.864 226.881 123.144 225.921 122.616C225.009 122.04 223.881 121.656 222.537 121.464C221.193 121.224 219.705 121.104 218.073 121.104ZM268.225 163.008C264.721 163.008 261.697 162.528 259.153 161.568C256.609 160.56 254.497 159.192 252.817 157.464C251.185 155.688 249.961 153.6 249.145 151.2C248.377 148.752 247.993 146.064 247.993 143.136V112.104H259.225V142.2C259.225 144.216 259.441 145.944 259.873 147.384C260.353 148.776 260.977 149.928 261.745 150.84C262.561 151.704 263.521 152.328 264.625 152.712C265.777 153.096 267.025 153.288 268.369 153.288C271.105 153.288 273.313 152.448 274.993 150.768C276.721 149.088 277.585 146.232 277.585 142.2V112.104H288.817V143.136C288.817 146.064 288.409 148.752 287.593 151.2C286.777 153.648 285.529 155.76 283.849 157.536C282.169 159.264 280.033 160.608 277.441 161.568C274.849 162.528 271.777 163.008 268.225 163.008ZM336.627 112.104V121.68H321.579V162H310.347V121.68H295.299V112.104H336.627ZM343.846 162V112.104H377.542V121.536H355.078V131.328H375.022V140.544H355.078V152.568H379.198V162H343.846ZM402.126 111.528C409.614 111.528 415.35 112.872 419.334 115.56C423.318 118.2 425.31 122.328 425.31 127.944C425.31 131.448 424.494 134.304 422.862 136.512C421.278 138.672 418.974 140.376 415.95 141.624C416.958 142.872 418.014 144.312 419.118 145.944C420.222 147.528 421.302 149.208 422.358 150.984C423.462 152.712 424.518 154.536 425.526 156.456C426.534 158.328 427.47 160.176 428.334 162H415.734C414.822 160.368 413.886 158.712 412.926 157.032C412.014 155.352 411.054 153.72 410.046 152.136C409.086 150.552 408.126 149.064 407.166 147.672C406.206 146.232 405.246 144.936 404.286 143.784H398.742V162H387.51V112.824C389.958 112.344 392.478 112.008 395.07 111.816C397.71 111.624 400.062 111.528 402.126 111.528ZM402.774 121.104C401.958 121.104 401.214 121.128 400.542 121.176C399.918 121.224 399.318 121.272 398.742 121.32V134.856H401.91C406.134 134.856 409.158 134.328 410.982 133.272C412.806 132.216 413.718 130.416 413.718 127.872C413.718 125.424 412.782 123.696 410.91 122.688C409.086 121.632 406.374 121.104 402.774 121.104Z" fill="#FAAC31"/>
<path d="M71.768 18.104V27.68H56.72V68H45.488V27.68H30.44V18.104H71.768ZM109.083 18.104H120.315V68H109.083V46.832H90.2186V68H78.9866V18.104H90.2186V37.184H109.083V18.104ZM131.862 68V18.104H165.558V27.536H143.094V37.328H163.038V46.544H143.094V58.568H167.214V68H131.862Z" fill="white"/>
<path d="M160.368 221.432C161.952 221.432 163.248 221.312 164.256 221.072C165.312 220.784 166.152 220.424 166.776 219.992C167.4 219.512 167.832 218.96 168.072 218.336C168.312 217.712 168.432 217.016 168.432 216.248C168.432 214.616 167.664 213.272 166.128 212.216C164.592 211.112 161.952 209.936 158.208 208.688C156.576 208.112 154.944 207.464 153.312 206.744C151.68 205.976 150.216 205.04 148.92 203.936C147.624 202.784 146.568 201.416 145.752 199.832C144.936 198.2 144.528 196.232 144.528 193.928C144.528 191.624 144.96 189.56 145.824 187.736C146.688 185.864 147.912 184.28 149.496 182.984C151.08 181.688 153 180.704 155.256 180.032C157.512 179.312 160.056 178.952 162.888 178.952C166.248 178.952 169.152 179.312 171.6 180.032C174.048 180.752 176.064 181.544 177.648 182.408L174.408 191.264C173.016 190.544 171.456 189.92 169.728 189.392C168.048 188.816 166.008 188.528 163.608 188.528C160.92 188.528 158.976 188.912 157.776 189.68C156.624 190.4 156.048 191.528 156.048 193.064C156.048 193.976 156.264 194.744 156.696 195.368C157.128 195.992 157.728 196.568 158.496 197.096C159.312 197.576 160.224 198.032 161.232 198.464C162.288 198.848 163.44 199.256 164.688 199.688C167.28 200.648 169.536 201.608 171.456 202.568C173.376 203.48 174.96 204.56 176.208 205.808C177.504 207.056 178.464 208.52 179.088 210.2C179.712 211.88 180.024 213.92 180.024 216.32C180.024 220.976 178.392 224.6 175.128 227.192C171.864 229.736 166.944 231.008 160.368 231.008C158.16 231.008 156.168 230.864 154.392 230.576C152.616 230.336 151.032 230.024 149.64 229.64C148.296 229.256 147.12 228.848 146.112 228.416C145.152 227.984 144.336 227.576 143.664 227.192L146.832 218.264C148.32 219.08 150.144 219.824 152.304 220.496C154.512 221.12 157.2 221.432 160.368 221.432ZM198.098 205.016C198.098 207.464 198.386 209.672 198.962 211.64C199.586 213.608 200.45 215.312 201.554 216.752C202.706 218.144 204.098 219.224 205.73 219.992C207.362 220.76 209.234 221.144 211.346 221.144C213.41 221.144 215.258 220.76 216.89 219.992C218.57 219.224 219.962 218.144 221.066 216.752C222.218 215.312 223.082 213.608 223.658 211.64C224.282 209.672 224.594 207.464 224.594 205.016C224.594 202.568 224.282 200.36 223.658 198.392C223.082 196.376 222.218 194.672 221.066 193.28C219.962 191.84 218.57 190.736 216.89 189.968C215.258 189.2 213.41 188.816 211.346 188.816C209.234 188.816 207.362 189.224 205.73 190.04C204.098 190.808 202.706 191.912 201.554 193.352C200.45 194.744 199.586 196.448 198.962 198.464C198.386 200.432 198.098 202.616 198.098 205.016ZM236.186 205.016C236.186 209.288 235.538 213.056 234.242 216.32C232.994 219.536 231.266 222.248 229.058 224.456C226.85 226.616 224.21 228.248 221.138 229.352C218.114 230.456 214.85 231.008 211.346 231.008C207.938 231.008 204.722 230.456 201.698 229.352C198.674 228.248 196.034 226.616 193.778 224.456C191.522 222.248 189.746 219.536 188.45 216.32C187.154 213.056 186.506 209.288 186.506 205.016C186.506 200.744 187.178 197 188.522 193.784C189.866 190.52 191.666 187.784 193.922 185.576C196.226 183.368 198.866 181.712 201.842 180.608C204.866 179.504 208.034 178.952 211.346 178.952C214.754 178.952 217.97 179.504 220.994 180.608C224.018 181.712 226.658 183.368 228.914 185.576C231.17 187.784 232.946 190.52 234.242 193.784C235.538 197 236.186 200.744 236.186 205.016ZM268.301 231.008C260.189 231.008 253.997 228.752 249.725 224.24C245.501 219.728 243.389 213.32 243.389 205.016C243.389 200.888 244.037 197.216 245.333 194C246.629 190.736 248.405 188 250.661 185.792C252.917 183.536 255.605 181.832 258.725 180.68C261.845 179.528 265.229 178.952 268.877 178.952C270.989 178.952 272.909 179.12 274.637 179.456C276.365 179.744 277.877 180.104 279.173 180.536C280.469 180.92 281.549 181.328 282.413 181.76C283.277 182.192 283.901 182.528 284.285 182.768L281.045 191.84C279.509 191.024 277.709 190.328 275.645 189.752C273.629 189.176 271.325 188.888 268.733 188.888C267.005 188.888 265.301 189.176 263.621 189.752C261.989 190.328 260.525 191.264 259.229 192.56C257.981 193.808 256.973 195.44 256.205 197.456C255.437 199.472 255.053 201.92 255.053 204.8C255.053 207.104 255.293 209.264 255.773 211.28C256.301 213.248 257.117 214.952 258.221 216.392C259.373 217.832 260.861 218.984 262.685 219.848C264.509 220.664 266.717 221.072 269.309 221.072C270.941 221.072 272.405 220.976 273.701 220.784C274.997 220.592 276.149 220.376 277.157 220.136C278.165 219.848 279.053 219.536 279.821 219.2C280.589 218.864 281.285 218.552 281.909 218.264L285.005 227.264C283.421 228.224 281.189 229.088 278.309 229.856C275.429 230.624 272.093 231.008 268.301 231.008ZM292.237 180.104H303.469V230H292.237V180.104ZM315.018 230V180.104H348.714V189.536H326.25V199.328H346.194V208.544H326.25V220.568H350.37V230H315.018ZM395.69 180.104V189.68H380.642V230H369.41V189.68H354.362V180.104H395.69ZM423.657 200.624C425.673 197.216 427.593 193.808 429.417 190.4C431.241 186.992 432.921 183.56 434.457 180.104H446.841C444.105 185.48 441.273 190.688 438.345 195.728C435.417 200.768 432.321 205.832 429.057 210.92V230H417.825V211.064C414.561 205.976 411.441 200.888 408.465 195.8C405.537 190.712 402.705 185.48 399.969 180.104H413.001C414.537 183.56 416.193 186.992 417.969 190.4C419.745 193.808 421.641 197.216 423.657 200.624Z" fill="white"/>
<defs>
<filter id="filter0_d" x="64" y="119" width="42" height="42" filterUnits="userSpaceOnUse" color-interpolation-filters="sRGB">
<feFlood flood-opacity="0" result="BackgroundImageFix"/>
<feColorMatrix in="SourceAlpha" type="matrix" values="0 0 0 0 0 0 0 0 0 0 0 0 0 0 0 0 0 0 127 0" result="hardAlpha"/>
<feOffset dy="4"/>
<feGaussianBlur stdDeviation="2"/>
<feComposite in2="hardAlpha" operator="out"/>
<feColorMatrix type="matrix" values="0 0 0 0 0 0 0 0 0 0 0 0 0 0 0 0 0 0 0.25 0"/>
<feBlend mode="normal" in2="BackgroundImageFix" result="effect1_dropShadow"/>
<feBlend mode="normal" in="SourceGraphic" in2="effect1_dropShadow" result="shape"/>
</filter>
</defs>
</svg>
