<svg width="641" height="771" viewBox="0 0 641 771" fill="none" xmlns="http://www.w3.org/2000/svg">
<path d="M575.281 190.007C533.446 149.298 479.641 123.102 421.794 115.277C363.947 107.453 305.117 118.414 253.969 146.546C202.822 174.679 162.062 218.494 137.694 271.538C113.326 324.582 106.638 384.051 118.617 441.182C130.595 498.314 160.606 550.087 204.228 588.877C247.85 627.666 302.776 651.42 360.916 656.638C419.056 661.857 477.335 648.265 527.168 617.864C577 587.463 615.751 541.862 637.712 487.777L610.964 476.915C591.33 525.269 556.684 566.039 512.132 593.219C467.58 620.398 415.476 632.55 363.497 627.884C311.518 623.219 262.411 601.982 223.411 567.303C184.412 532.624 157.581 486.336 146.872 435.258C136.163 384.18 142.142 331.013 163.928 283.59C185.714 236.166 222.155 196.993 267.882 171.842C313.61 146.691 366.207 136.891 417.924 143.887C469.642 150.882 517.745 174.302 555.148 210.698L575.281 190.007Z" fill="#FAAC31"/>
<path d="M517.133 249.765C488.1 221.514 450.762 203.334 410.618 197.905C370.474 192.475 329.647 200.081 294.152 219.604C258.658 239.127 230.371 269.534 213.461 306.345C196.55 343.156 191.909 384.425 200.222 424.072C208.535 463.72 229.361 499.649 259.633 526.568C289.906 553.487 328.023 569.971 368.37 573.592C408.718 577.214 449.161 567.782 483.744 546.684C518.326 525.587 545.218 493.941 560.459 456.408L437.544 406.498C432.997 417.697 424.973 427.14 414.655 433.434C404.336 439.729 392.269 442.544 380.23 441.463C368.192 440.382 356.819 435.464 347.786 427.432C338.754 419.4 332.54 408.68 330.06 396.85C327.579 385.021 328.964 372.707 334.01 361.724C339.055 350.74 347.495 341.668 358.086 335.843C368.677 330.018 380.858 327.748 392.836 329.368C404.814 330.988 415.955 336.413 424.617 344.842L517.133 249.765Z" fill="white"/>
</svg>
