<svg width="32" height="32" viewBox="0 0 32 32" fill="none" xmlns="http://www.w3.org/2000/svg">
<path opacity="0.74" d="M11.6771 4.02077C9.10281 4.90717 6.89357 6.61942 5.39298 8.89121C3.89239 11.163 3.18458 13.867 3.37962 16.5826C3.57466 19.2983 4.66163 21.8734 6.47147 23.9074C8.28131 25.9414 10.7126 27.3204 13.3871 27.8298C16.0617 28.3392 18.8296 27.9506 21.2605 26.7243C23.6913 25.498 25.6488 23.5027 26.8284 21.0489C28.0081 18.5951 28.3439 15.8203 27.7834 13.1559C27.223 10.4916 25.7979 8.08708 23.7297 6.31642L20.6709 9.88919C21.9515 10.9855 22.8339 12.4743 23.1809 14.124C23.5279 15.7737 23.32 17.4918 22.5896 19.0111C21.8592 20.5304 20.6472 21.7658 19.1421 22.5251C17.637 23.2844 15.9231 23.525 14.2671 23.2096C12.6111 22.8942 11.1058 22.0404 9.98518 20.781C8.86459 19.5216 8.19157 17.9272 8.07081 16.2457C7.95005 14.5643 8.3883 12.89 9.31742 11.4834C10.2465 10.0768 11.6144 9.01663 13.2084 8.4678L11.6771 4.02077Z" fill="#FAAC31"/>
</svg>
